<svg width="184" height="152" viewBox="0 0 184 152" fill="none" xmlns="http://www.w3.org/2000/svg">
<path d="M91.797 151.228C129.24 151.228 159.594 145.556 159.594 138.56C159.594 131.564 129.24 125.892 91.797 125.892C54.3537 125.892 24 131.564 24 138.56C24 145.556 54.3537 151.228 91.797 151.228Z" fill="#F5F5F5"/>
<path fill-rule="evenodd" clip-rule="evenodd" d="M146.034 101.344L122.109 71.899C120.961 70.513 119.283 69.674 117.516 69.674H66.076C64.31 69.674 62.632 70.513 61.484 71.899L37.56 101.344V116.727H146.035V101.344H146.034Z" fill="#AEB8C2"/>
<path fill-rule="evenodd" clip-rule="evenodd" d="M139.097 117.884L118.19 92.772C117.189 91.565 115.683 90.905 114.142 90.905H69.284C67.744 90.905 66.237 91.565 65.236 92.772L44.329 117.884V131.676H139.097V117.884Z" fill="#AEB8C2"/>
<path fill-rule="evenodd" clip-rule="evenodd" d="M57.83 31.67H125.763C126.824 31.67 127.841 32.0914 128.591 32.8416C129.342 33.5917 129.763 34.6091 129.763 35.67V129.014C129.763 130.075 129.342 131.092 128.591 131.842C127.841 132.593 126.824 133.014 125.763 133.014H57.83C56.7692 133.014 55.7517 132.593 55.0016 131.842C54.2514 131.092 53.83 130.075 53.83 129.014V35.67C53.83 34.6091 54.2514 33.5917 55.0016 32.8416C55.7517 32.0914 56.7692 31.67 57.83 31.67V31.67Z" fill="#F5F5F7"/>
<path fill-rule="evenodd" clip-rule="evenodd" d="M66.678 41.623H116.915C117.445 41.623 117.954 41.8337 118.329 42.2088C118.704 42.5839 118.915 43.0926 118.915 43.623V68.58C118.915 69.1104 118.704 69.6191 118.329 69.9942C117.954 70.3693 117.445 70.58 116.915 70.58H66.678C66.1476 70.58 65.6389 70.3693 65.2638 69.9942C64.8887 69.6191 64.678 69.1104 64.678 68.58V43.623C64.678 43.0926 64.8887 42.5839 65.2638 42.2088C65.6389 41.8337 66.1476 41.623 66.678 41.623V41.623ZM66.94 81.437H116.653C117.253 81.437 117.828 81.6753 118.252 82.0995C118.677 82.5237 118.915 83.0991 118.915 83.699C118.915 84.2989 118.677 84.8743 118.252 85.2985C117.828 85.7227 117.253 85.961 116.653 85.961H66.94C66.3401 85.961 65.7648 85.7227 65.3405 85.2985C64.9163 84.8743 64.678 84.2989 64.678 83.699C64.678 83.0991 64.9163 82.5237 65.3405 82.0995C65.7648 81.6753 66.3401 81.437 66.94 81.437V81.437ZM66.94 93.2H116.653C117.253 93.2 117.829 93.4384 118.253 93.8627C118.677 94.287 118.916 94.8624 118.916 95.4625C118.916 96.0626 118.677 96.638 118.253 97.0623C117.829 97.4866 117.253 97.725 116.653 97.725H66.94C66.34 97.725 65.7645 97.4866 65.3402 97.0623C64.9159 96.638 64.6775 96.0626 64.6775 95.4625C64.6775 94.8624 64.9159 94.287 65.3402 93.8627C65.7645 93.4384 66.34 93.2 66.94 93.2V93.2ZM145.813 136.702C145.038 139.773 142.316 142.062 139.078 142.062H44.515C41.277 142.062 38.555 139.772 37.781 136.702C37.6334 136.117 37.5588 135.516 37.559 134.912V101.345H63.877C66.784 101.345 69.127 103.793 69.127 106.765V106.805C69.127 109.776 71.497 112.175 74.404 112.175H109.189C112.096 112.175 114.466 109.754 114.466 106.782V106.77C114.466 103.798 116.809 101.344 119.716 101.344H146.034V134.913C146.034 135.53 145.957 136.129 145.813 136.702V136.702Z" fill="#DCE0E6"/>
</svg>
