<svg width="560" height="560" viewBox="0 0 560 560" fill="none" xmlns="http://www.w3.org/2000/svg">
<g clip-path="url(#clip0_202_544)">
<path d="M450.031 453.656H490.718V440.723H450.031V453.656Z" fill="#EBEBEB"/>
<path d="M422.548 214.221H463.234V201.287H422.548V214.221Z" fill="#EBEBEB"/>
<path d="M472.723 469.965C479.481 469.849 496.804 469.56 503.331 469.491L513.41 469.433L512.877 469.965V457.032L513.456 457.609C506.698 457.609 489.468 457.529 482.941 457.436L472.769 457.309L473.047 457.032L472.769 469.965H472.723ZM472.723 469.965L472.457 457.032V456.754H472.735C477.815 456.685 488.01 456.569 493.078 456.535L513.421 456.454H514V457.032V469.965V470.497H513.479H503.215C496.735 470.427 479.493 470.138 472.793 470.023L472.723 469.965Z" fill="#EBEBEB"/>
<path d="M115.396 357.193C122.154 357.078 139.477 356.789 145.992 356.708H156.071L155.551 357.239V344.306L156.118 344.884C149.371 344.884 132.141 344.803 125.614 344.699L115.443 344.583L115.709 344.306L115.443 357.239L115.396 357.193ZM115.396 357.193L115.119 344.26V343.982H115.408C120.476 343.913 130.671 343.797 135.751 343.763L156.083 343.682H156.673V344.26V357.193V357.725H156.025H145.772C139.292 357.656 122.039 357.367 115.35 357.251L115.396 357.193Z" fill="#EBEBEB"/>
<path d="M138.089 373.502C144.847 373.386 162.17 373.097 168.696 373.016H178.775L178.243 373.548V360.614L178.822 361.192C172.064 361.192 154.833 361.111 148.307 361.007L138.135 360.892L138.413 360.614L138.135 373.548L138.089 373.502ZM138.089 373.502L137.811 360.568V360.349H138.089C143.169 360.279 153.352 360.164 158.432 360.129L178.775 360.048H179.354V360.626V373.559V374.091H178.833H168.569C162.089 374.022 144.835 373.733 138.147 373.617L138.089 373.502Z" fill="#EBEBEB"/>
<path d="M160.7 357.182H201.387V344.248H160.7V357.182Z" fill="#EBEBEB"/>
<path d="M46.2778 469.965H86.9644V457.031H46.2778V469.965Z" fill="#EBEBEB"/>
<path d="M68.9701 56.5114L109.657 56.5114V43.5779L68.9701 43.5779V56.5114Z" fill="#EBEBEB"/>
<path d="M46.2777 72.8197C53.0357 72.7041 70.3587 72.4152 76.8853 72.3458H86.9643L86.432 72.8659V59.9325L87.0106 60.5104C80.2527 60.5104 63.0222 60.4295 56.4957 60.337L46.324 60.2099L46.5555 59.84L46.2777 72.7735V72.8197ZM46.2777 72.8197L46 59.84V59.5742H46.2777C51.3578 59.5049 61.541 59.3893 66.621 59.3431L86.9643 59.2621H87.5429V59.84V72.7735V73.3051H87.0222H76.758C70.2777 73.2242 53.0241 72.9353 46.3356 72.8197H46.2777Z" fill="#EBEBEB"/>
<path d="M472.723 56.5113C479.481 56.3957 496.804 56.1184 503.331 56.0374H513.41L512.877 56.5576V43.6241L513.456 44.202C506.698 44.202 489.468 44.1211 482.941 44.0287L472.769 43.9015L473.047 43.6241L472.769 56.5576L472.723 56.5113ZM472.723 56.5113L472.457 43.5779V43.3121H472.735C477.815 43.2427 488.01 43.1271 493.078 43.0809L513.421 43H514V43.5779V56.5113V57.043H513.479H503.215C496.735 56.9621 479.493 56.6731 472.793 56.5576L472.723 56.5113Z" fill="#EBEBEB"/>
<path d="M63.2421 47.8197V253.16H196.874V47.8197H63.2421ZM191.898 248.236H68.0791V52.7434H191.898V248.236Z" fill="#EBEBEB"/>
<path d="M191.944 52.7319H68.1832V248.224H191.944V52.7319Z" fill="white"/>
<path d="M68.1716 152.94L191.932 152.94V148.016L68.1716 148.016V152.94Z" fill="#EBEBEB"/>
<path d="M54.1698 267.283H205.946V253.148L54.1698 253.148V267.283Z" fill="#DBDBDB"/>
<path d="M68.1716 52.7319H191.898V179.211H68.1716V52.7319ZM187.362 57.2973H72.7078V174.657H187.338L187.362 57.2973Z" fill="#DBDBDB"/>
<path d="M152.438 52.7319H149.973V174.646H152.438V52.7319Z" fill="#DBDBDB"/>
<path d="M110.143 52.7319H107.678V174.646H110.143V52.7319Z" fill="#DBDBDB"/>
<path d="M362.825 47.8197V253.16H496.445V47.8197H362.825ZM491.516 248.236H367.79V52.7434H491.608L491.516 248.236Z" fill="#EBEBEB"/>
<path d="M491.527 52.7319H367.767V248.224H491.527V52.7319Z" fill="white"/>
<path d="M367.755 152.94L491.516 152.94V148.016L367.755 148.016V152.94Z" fill="#EBEBEB"/>
<path d="M353.753 267.283H505.529V253.148L353.753 253.148V267.283Z" fill="#DBDBDB"/>
<path d="M367.79 52.7319H491.609V179.211H367.79V52.7319ZM486.98 57.2973H372.314V174.657H486.98V57.2973Z" fill="#DBDBDB"/>
<path d="M452.021 52.7319H449.556V174.646H452.021V52.7319Z" fill="#DBDBDB"/>
<path d="M409.726 52.7319H407.261V174.646H409.726V52.7319Z" fill="#DBDBDB"/>
<path d="M492.088 299H323V309.31H492.088V299Z" fill="#EBEBEB"/>
<path d="M477.01 309.31H338.078V337.754H477.01V309.31Z" fill="#EBEBEB"/>
<path d="M477.021 314.927L338.078 317.678V309.31H477.021V314.927Z" fill="#C7C7C7"/>
<path d="M455.509 315.262H359.59V331.79H455.509V315.262Z" stroke="#DBDBDB" stroke-miterlimit="10"/>
<path d="M423.363 321.145H391.737V325.919H423.363V321.145Z" fill="#DBDBDB"/>
<path d="M336.956 501.358H332.362L345.739 337.754H357.472L336.956 501.358Z" fill="#EBEBEB"/>
<path d="M357.473 337.766L356.107 348.711H344.848L345.739 337.766H357.473Z" fill="#C7C7C7"/>
<path d="M478.132 501.358H482.738L469.349 337.754H457.615L478.132 501.358Z" fill="#EBEBEB"/>
<path d="M457.615 337.766L458.992 348.711H470.24L469.349 337.766H457.615Z" fill="#C7C7C7"/>
<path d="M436.781 369.179C437.863 376.719 437.47 384.396 435.624 391.786C434.749 395.21 433.588 398.554 432.152 401.784C430.347 405.922 428.472 409.956 428.924 414.498C429.364 414.787 427.859 414.741 427.767 414.301C415.651 407.367 400.122 406.153 390.806 394.896C386.386 389.556 384.164 382.806 383.111 376.044C381.954 368.682 381.641 360.534 383.551 353.275C385.148 347.149 388.735 341.232 394.509 338.25C400.469 335.152 408.268 335.406 414.54 337.348C428.137 341.521 434.906 356.107 436.781 369.179Z" fill="#3898FF"/>
<path d="M443.007 458.719C441.356 453.217 439.689 447.72 438.008 442.226C434.687 431.477 431.227 420.762 427.408 410.175C425.093 403.841 422.675 397.565 420.152 391.347C420.592 387.441 420.766 383.546 421.599 379.651C422.617 374.958 424.087 370.404 425.452 365.839C425.533 365.561 425.082 365.411 424.966 365.677C422.247 371.999 418.694 380.09 418.613 387.579C415.651 380.544 412.476 373.61 409.09 366.775C408.706 360.992 408.885 355.186 409.622 349.438C409.625 349.387 409.61 349.338 409.58 349.298C409.549 349.257 409.505 349.23 409.455 349.22C409.405 349.21 409.354 349.219 409.31 349.244C409.266 349.269 409.233 349.309 409.217 349.357C408.188 354.389 407.799 359.531 408.06 364.66C405.456 359.528 402.714 354.454 399.786 349.461C399.531 349.01 398.906 349.461 399.138 349.912C403.689 358.673 407.932 367.588 411.867 376.657C406.292 371.827 399.847 368.101 392.877 365.677C392.577 365.573 392.357 366.001 392.658 366.128C400.262 369.391 407.219 373.991 413.198 379.708C416.044 386.343 418.744 393.027 421.298 399.761C413.73 392.341 403.362 387.464 393.329 384.84C392.982 384.759 392.889 385.279 393.225 385.372C404.797 388.839 413.846 395.439 422.675 403.333C423.701 406.061 424.708 408.792 425.695 411.528C429.429 421.884 432.989 432.309 436.376 442.804C438.012 447.835 439.616 452.871 441.19 457.91C442.879 463.331 444.199 469.052 446.409 474.299C446.617 474.796 447.566 474.681 447.404 474.08C446.409 468.89 444.511 463.781 443.007 458.719Z" fill="#263238"/>
<path d="M422.906 358.592C420.755 361.889 419.272 365.577 418.544 369.445C418.544 369.549 418.683 369.607 418.717 369.503C420.073 365.86 421.654 362.305 423.45 358.858C423.635 358.499 423.115 358.28 422.906 358.592Z" fill="#263238"/>
<path d="M401.348 383.788C397.976 381.928 394.295 380.691 390.482 380.136C390.46 380.132 390.438 380.136 390.419 380.148C390.4 380.159 390.386 380.177 390.379 380.198C390.372 380.219 390.373 380.242 390.381 380.262C390.389 380.282 390.405 380.299 390.424 380.309C392.172 381.037 394.011 381.534 395.77 382.216C397.529 382.898 399.242 383.73 401.082 384.355C401.157 384.39 401.243 384.394 401.321 384.366C401.399 384.338 401.463 384.279 401.498 384.204C401.534 384.129 401.538 384.043 401.51 383.965C401.481 383.887 401.423 383.824 401.348 383.788V383.788Z" fill="#263238"/>
<path d="M395.215 353.472C394.132 352.642 392.969 351.922 391.744 351.322C391.704 351.308 391.662 351.308 391.623 351.321C391.584 351.335 391.55 351.361 391.527 351.395C391.505 351.43 391.494 351.471 391.498 351.512C391.501 351.553 391.519 351.592 391.547 351.622C392.626 352.48 393.789 353.227 395.018 353.853C395.192 353.992 395.435 353.622 395.215 353.472Z" fill="#263238"/>
<path d="M477.606 410.256C468.881 412.845 460.11 415.238 451.396 417.792C450.632 418.023 435.89 389.798 441.225 375.258C446.143 361.805 457.425 351.738 470.872 347.161C477.097 345.057 484.758 343.277 491.331 344.722C497.174 346.017 501.306 350.802 503.215 356.28C505.795 363.758 504.939 372.658 503.527 380.286C502.22 387.36 499.628 394.318 494.953 399.877C490.278 405.436 484.399 408.245 477.606 410.256Z" fill="#3898FF"/>
<path d="M490.243 383.465C484.732 386.152 479.017 388.401 473.151 390.192C469.437 391.347 465.283 392.503 461.73 394.318C465.41 386.112 469.46 378.079 473.742 370.127C479.377 368.497 485.313 365.954 489.56 361.978C489.609 361.935 489.639 361.875 489.644 361.81C489.648 361.745 489.626 361.681 489.583 361.632C489.54 361.583 489.48 361.553 489.415 361.548C489.35 361.544 489.285 361.566 489.236 361.609C484.608 364.891 479.47 366.856 474.32 369.075C475.477 366.937 476.635 364.799 477.85 362.66C477.889 362.602 477.917 362.536 477.931 362.467C477.945 362.398 477.945 362.327 477.932 362.258C477.918 362.188 477.891 362.122 477.853 362.064C477.814 362.005 477.763 361.954 477.705 361.915C477.646 361.875 477.581 361.848 477.512 361.834C477.442 361.82 477.371 361.819 477.302 361.833C477.232 361.846 477.167 361.873 477.108 361.912C477.049 361.951 476.998 362.001 476.959 362.059C472.378 368.717 468.238 375.666 464.565 382.864C463.631 376.56 463.333 370.179 463.674 363.816C463.674 363.654 463.443 363.643 463.42 363.816C462.329 370.753 462.404 377.823 463.639 384.736C460.573 390.839 457.784 397.092 455.284 403.414C454.289 399.611 452.97 395.867 452.137 392.041C450.815 386.555 450.393 380.891 450.887 375.27C450.887 375.108 450.656 375.097 450.633 375.27C449.085 385.676 450.347 396.305 454.289 406.061C452.831 409.863 451.443 413.689 450.17 417.515C443.601 437.051 439.708 457.385 438.598 477.963C438.598 478.061 438.637 478.155 438.706 478.225C438.776 478.294 438.87 478.333 438.968 478.333C439.066 478.333 439.161 478.294 439.23 478.225C439.299 478.155 439.338 478.061 439.338 477.963C441.622 457.662 445.976 437.648 452.334 418.231C454.868 410.638 457.772 403.264 460.966 396.028C466.127 394.514 471.254 392.445 476.311 390.7C481.367 388.955 486.309 387.013 490.451 383.765C490.602 383.615 490.451 383.349 490.243 383.465Z" fill="#263238"/>
<path d="M498.378 375.247C493.043 377.142 487.963 379.789 482.663 381.708C482.409 381.8 482.559 382.193 482.814 382.147C488.449 380.991 494.039 379.246 498.586 375.547C498.76 375.374 498.552 375.178 498.378 375.247Z" fill="#263238"/>
<path d="M454.822 363.747C454.891 363.469 454.474 363.307 454.393 363.596C452.924 368.509 451.917 373.721 453.34 378.737C453.398 378.934 453.711 378.934 453.722 378.737C453.977 373.652 453.688 368.728 454.822 363.747Z" fill="#263238"/>
<path d="M476.866 352.408C475.164 354.845 474.348 357.789 474.552 360.753C474.552 360.938 474.864 361.054 474.91 360.834C475.558 358.014 476.646 355.46 477.514 352.743C477.54 352.66 477.536 352.571 477.503 352.49C477.469 352.41 477.409 352.343 477.331 352.303C477.254 352.263 477.165 352.252 477.079 352.271C476.994 352.29 476.919 352.339 476.866 352.408V352.408Z" fill="#263238"/>
<path d="M373.853 422.762C376.411 430.853 382.486 442.075 392.114 442.168C398.351 442.226 404.634 441.486 410.883 441.393C417.583 441.289 424.295 441.313 430.972 441.706C431.516 441.706 430.174 421.675 414.077 411.909C409.564 409.181 404.056 408.314 398.941 407.205C393.087 405.82 387.077 405.194 381.063 405.344C377.36 405.494 374.293 406.269 372.962 410.048C371.597 413.955 372.627 418.855 373.853 422.762Z" fill="#3898FF"/>
<path d="M380.785 412.568C384.696 413.562 388.642 414.718 392.565 415.966C391.543 414.856 390.461 413.803 389.325 412.811C387.635 411.412 385.784 410.291 383.967 409.066C383.817 408.962 383.909 408.673 384.106 408.742C387.91 410.328 391.196 412.942 393.595 416.289C398.49 417.861 403.327 419.607 407.99 421.514C411.224 422.834 414.324 424.46 417.248 426.368C416.309 424.348 415.194 422.414 413.915 420.589C411.774 417.827 408.881 416.289 406.093 414.325C406.05 414.285 406.022 414.232 406.013 414.174C406.005 414.117 406.016 414.058 406.046 414.008C406.076 413.958 406.122 413.919 406.177 413.899C406.232 413.879 406.292 413.878 406.347 413.897C409.271 415.165 411.897 417.029 414.057 419.37C416.217 421.71 417.863 424.476 418.891 427.489C422.244 429.887 425.308 432.664 428.021 435.765C438.667 447.843 447.057 463.92 447.08 480.321C447.08 480.702 446.455 480.818 446.386 480.413C443.354 464.117 436.92 449.496 426.077 436.851C425.313 435.961 424.526 435.117 423.763 434.297C420.843 433.907 417.902 433.691 414.957 433.65C411.485 433.65 408.141 434.147 404.727 434.424C399.103 434.886 392.901 434.944 387.832 432.112C387.601 431.985 387.751 431.604 388.006 431.696C399.3 435.799 411.149 430.541 422.478 433.037C417.638 428.435 411.973 424.785 405.78 422.276L404.739 421.86C397.483 422.739 389.834 424.623 382.752 422.265C382.708 422.253 382.67 422.223 382.647 422.183C382.624 422.143 382.618 422.096 382.631 422.051C382.643 422.007 382.672 421.969 382.713 421.946C382.753 421.923 382.8 421.918 382.845 421.93C389.661 423.64 396.21 421.491 402.933 421.155C395.608 418.301 388.133 416.035 380.785 413.203C380.125 412.961 380.114 412.36 380.785 412.568Z" fill="#263238"/>
<path d="M377.58 419.688C381.08 420.149 384.603 420.415 388.133 420.485C388.214 420.485 388.249 420.624 388.133 420.635C384.583 421.295 380.924 421.061 377.487 419.953C377.469 419.947 377.453 419.938 377.44 419.926C377.426 419.913 377.414 419.898 377.406 419.882C377.398 419.865 377.394 419.847 377.393 419.829C377.391 419.81 377.394 419.792 377.4 419.774C377.406 419.757 377.416 419.741 377.428 419.727C377.44 419.713 377.455 419.702 377.472 419.694C377.489 419.686 377.507 419.681 377.525 419.68C377.544 419.679 377.562 419.681 377.58 419.688V419.688Z" fill="#263238"/>
<path d="M401.417 412.741C403.37 413.613 405.14 414.844 406.636 416.37C406.822 416.532 406.579 416.856 406.37 416.706C405.491 416.07 404.577 415.457 403.662 414.868C402.782 414.384 401.932 413.848 401.117 413.261C401.069 413.213 401.039 413.15 401.03 413.082C401.022 413.015 401.036 412.946 401.07 412.888C401.104 412.829 401.156 412.783 401.219 412.756C401.282 412.73 401.352 412.724 401.417 412.741Z" fill="#263238"/>
<path d="M458.235 438.839C458.12 439.105 458.501 439.359 458.652 439.07C458.682 439.113 458.719 439.149 458.763 439.177C458.807 439.204 458.855 439.223 458.906 439.232C465.386 440.79 471.956 441.948 478.579 442.7C483.902 443.173 490.035 443.474 494.687 440.388C501.005 436.204 505.101 425.027 501.734 417.931C497.707 409.505 485.533 414.082 479.435 417.075C470.043 421.638 462.544 429.337 458.235 438.839Z" fill="#3898FF"/>
<path d="M453.514 442.734C457.063 439.308 461.006 436.313 465.259 433.811C468.316 428.97 472.376 424.839 477.167 421.699C477.387 421.537 477.595 421.895 477.375 422.057C473.573 425.106 470.199 428.651 467.342 432.598C472.084 430.013 477.007 427.777 482.073 425.906C483.888 422.556 486.638 419.806 489.988 417.989C489.988 417.989 490.139 418.046 490.069 418.104C487.3 420.203 484.886 422.732 482.918 425.594C485.915 424.438 488.935 423.432 491.956 422.438C492.233 422.346 492.337 422.762 492.071 422.854C486.702 424.958 481.205 427.166 475.871 429.72C482.387 430.759 489.027 430.759 495.543 429.72C495.716 429.72 495.797 429.951 495.612 429.997C488.829 432.003 481.624 432.111 474.783 430.309C471.391 431.964 468.096 433.808 464.912 435.834C467.592 435.618 470.289 435.84 472.897 436.493C477.494 437.562 482.201 438.094 486.922 438.076C486.956 438.086 486.986 438.106 487.008 438.134C487.029 438.162 487.041 438.197 487.041 438.232C487.041 438.268 487.029 438.302 487.008 438.331C486.986 438.359 486.956 438.379 486.922 438.388C478.822 439.787 471.092 436.077 463.038 437.059C454.093 443.079 446.953 451.412 442.382 461.169C438.991 468.104 437.151 475.386 434.409 482.517C434.39 482.583 434.347 482.639 434.287 482.672C434.227 482.706 434.157 482.715 434.091 482.696C434.025 482.678 433.969 482.634 433.935 482.574C433.901 482.515 433.893 482.444 433.911 482.378C436.26 468.254 443.261 452.813 453.514 442.734Z" fill="#263238"/>
<path d="M478.058 423.455C478.597 422.499 479.302 421.645 480.141 420.936C480.823 420.19 481.64 419.578 482.548 419.133C482.565 419.13 482.583 419.132 482.598 419.14C482.614 419.148 482.626 419.161 482.634 419.176C482.642 419.192 482.644 419.209 482.641 419.227C482.638 419.244 482.63 419.259 482.617 419.271C481.958 420.023 481.02 420.577 480.303 421.306C479.585 422.034 478.984 422.889 478.243 423.617C478.15 423.698 478 423.583 478.058 423.455Z" fill="#263238"/>
<path d="M491.481 427.824C492.638 427.512 493.957 427.535 495.184 427.293C496.402 426.998 497.603 426.639 498.783 426.218C498.817 426.202 498.855 426.201 498.89 426.214C498.925 426.227 498.953 426.253 498.968 426.287C498.983 426.321 498.985 426.359 498.972 426.394C498.959 426.429 498.932 426.457 498.899 426.472C496.68 427.838 494.075 428.443 491.481 428.194C491.443 428.181 491.41 428.155 491.387 428.122C491.363 428.089 491.351 428.05 491.351 428.009C491.351 427.969 491.363 427.929 491.387 427.896C491.41 427.863 491.443 427.838 491.481 427.824V427.824Z" fill="#263238"/>
<path d="M420.002 464.995L421.067 477.108L424.689 518H456.754L461.29 477.108L462.621 464.995H420.002Z" fill="#37474F"/>
<path d="M420.002 464.995L421.067 477.108H461.29L462.621 464.995H420.002Z" fill="#263238"/>
<path d="M416.831 471.514H465.803V461.689H416.831V471.514Z" fill="#37474F"/>
<path d="M438.378 100.547H121.46V238.573H438.378V100.547Z" fill="white"/>
<path d="M438.378 238.585C438.32 238.666 121.31 238.689 121.31 238.747C121.31 238.804 121.31 100.605 121.205 100.559V100.293H121.472C121.472 100.293 438.459 100.49 438.54 100.443C438.621 100.397 438.355 238.504 438.424 238.596L438.378 238.585ZM438.378 238.585C438.378 238.585 438.112 100.05 438.378 100.675L121.448 100.825L121.726 100.547C121.726 100.547 121.807 239.244 121.46 238.411L438.378 238.585Z" fill="#263238"/>
<path d="M438.378 100.547H121.46V110.429H438.378V100.547Z" fill="#263238"/>
<path d="M130.995 105.494C130.995 105.887 130.878 106.272 130.66 106.599C130.441 106.926 130.13 107.18 129.766 107.331C129.403 107.481 129.003 107.521 128.617 107.444C128.23 107.367 127.876 107.178 127.597 106.9C127.319 106.622 127.13 106.268 127.053 105.882C126.976 105.496 127.015 105.097 127.166 104.733C127.317 104.37 127.572 104.06 127.899 103.841C128.226 103.623 128.611 103.506 129.005 103.506C129.532 103.509 130.036 103.72 130.409 104.092C130.781 104.464 130.992 104.968 130.995 105.494V105.494Z" fill="#007BFF"/>
<path d="M139.142 105.494C139.144 105.891 139.028 106.279 138.809 106.609C138.59 106.94 138.278 107.198 137.911 107.351C137.545 107.504 137.142 107.544 136.752 107.467C136.363 107.391 136.005 107.2 135.724 106.92C135.444 106.639 135.253 106.282 135.176 105.893C135.099 105.504 135.14 105.101 135.293 104.735C135.445 104.369 135.704 104.057 136.035 103.838C136.366 103.62 136.754 103.504 137.151 103.506C137.678 103.509 138.183 103.72 138.555 104.092C138.928 104.464 139.139 104.968 139.142 105.494V105.494Z" fill="white"/>
<path d="M147.288 105.494C147.291 105.89 147.175 106.278 146.957 106.608C146.738 106.939 146.426 107.197 146.061 107.35C145.695 107.503 145.292 107.544 144.903 107.468C144.514 107.392 144.156 107.203 143.875 106.924C143.594 106.645 143.402 106.288 143.324 105.9C143.246 105.512 143.285 105.109 143.436 104.743C143.587 104.377 143.844 104.064 144.173 103.844C144.502 103.624 144.89 103.506 145.286 103.506C145.815 103.506 146.323 103.715 146.698 104.088C147.073 104.46 147.285 104.966 147.288 105.494V105.494Z" fill="#455A64"/>
<path d="M147.138 145.878C147.138 146.083 147.056 146.28 146.911 146.425C146.765 146.571 146.568 146.652 146.363 146.652C146.157 146.652 145.96 146.571 145.814 146.425C145.669 146.28 145.587 146.083 145.587 145.878V137.614C145.584 137.487 145.611 137.362 145.665 137.247C145.719 137.133 145.8 137.033 145.9 136.955C146.068 136.836 146.276 136.788 146.479 136.82C146.682 136.852 146.865 136.963 146.987 137.128L151.616 143.485V137.625C151.616 137.42 151.698 137.223 151.843 137.078C151.989 136.933 152.186 136.851 152.391 136.851C152.597 136.851 152.794 136.933 152.94 137.078C153.085 137.223 153.167 137.42 153.167 137.625V145.889C153.164 146.095 153.082 146.292 152.937 146.438C152.793 146.584 152.597 146.669 152.391 146.675C152.278 146.674 152.166 146.648 152.064 146.598C151.962 146.548 151.872 146.475 151.801 146.386L151.732 146.306L147.173 139.983L147.138 145.878Z" fill="#263238"/>
<path d="M162.424 143.116V145.901C162.424 146.101 162.345 146.294 162.205 146.436C162.064 146.579 161.873 146.661 161.672 146.664C161.498 146.66 161.33 146.597 161.195 146.486C161.061 146.375 160.968 146.222 160.932 146.051C160.378 146.448 159.715 146.663 159.034 146.664C158.581 146.664 158.133 146.571 157.717 146.393C157.301 146.214 156.926 145.952 156.615 145.624C155.984 144.942 155.636 144.045 155.643 143.116C155.629 142.189 155.978 141.293 156.615 140.619C156.921 140.282 157.294 140.012 157.711 139.827C158.127 139.642 158.578 139.545 159.034 139.544C159.718 139.548 160.384 139.77 160.932 140.18C160.963 140.005 161.054 139.847 161.189 139.731C161.324 139.615 161.494 139.549 161.672 139.544C161.772 139.546 161.871 139.567 161.964 139.607C162.056 139.646 162.139 139.704 162.209 139.776C162.279 139.848 162.334 139.933 162.371 140.026C162.408 140.119 162.426 140.218 162.424 140.319V143.116ZM160.92 143.116C160.93 142.577 160.731 142.055 160.365 141.659C160.198 141.472 159.993 141.322 159.763 141.221C159.534 141.119 159.285 141.068 159.034 141.07C158.784 141.064 158.536 141.113 158.307 141.215C158.079 141.317 157.877 141.469 157.715 141.659C157.347 142.054 157.152 142.577 157.171 143.116C157.156 143.657 157.351 144.182 157.715 144.583C157.884 144.763 158.088 144.904 158.316 145C158.543 145.096 158.787 145.143 159.034 145.138C159.281 145.139 159.527 145.091 159.755 144.996C159.984 144.9 160.191 144.76 160.365 144.583C160.726 144.18 160.924 143.657 160.92 143.116V143.116Z" fill="#263238"/>
<path d="M171.173 142.491V145.959C171.173 146.159 171.094 146.351 170.953 146.494C170.812 146.637 170.621 146.719 170.42 146.722C170.218 146.719 170.024 146.638 169.879 146.496C169.735 146.354 169.651 146.161 169.645 145.959V142.491C169.613 142.129 169.446 141.792 169.177 141.546C168.908 141.301 168.557 141.165 168.193 141.165C167.829 141.165 167.478 141.301 167.209 141.546C166.94 141.792 166.773 142.129 166.741 142.491V145.855C166.741 145.855 166.741 145.936 166.741 145.959C166.741 145.959 166.741 145.959 166.741 146.04V146.109C166.675 146.242 166.575 146.355 166.451 146.436C166.326 146.517 166.183 146.564 166.035 146.571H165.896C165.724 146.537 165.57 146.445 165.458 146.31C165.346 146.175 165.284 146.007 165.283 145.832V142.468V140.261C165.279 140.16 165.297 140.06 165.333 139.966C165.369 139.872 165.424 139.787 165.494 139.714C165.565 139.642 165.649 139.585 165.741 139.546C165.834 139.506 165.934 139.486 166.035 139.486C166.178 139.483 166.319 139.521 166.441 139.597C166.562 139.673 166.658 139.784 166.717 139.914C167.18 139.639 167.707 139.491 168.245 139.486C168.666 139.482 169.082 139.568 169.468 139.737C169.853 139.907 170.197 140.156 170.478 140.469C170.757 140.153 171.101 139.902 171.487 139.732C171.872 139.562 172.29 139.478 172.712 139.486C173.501 139.492 174.257 139.811 174.812 140.372C175.367 140.933 175.677 141.691 175.674 142.48V145.843C175.674 146.044 175.595 146.236 175.454 146.379C175.314 146.521 175.122 146.603 174.922 146.606C174.718 146.606 174.523 146.526 174.378 146.383C174.233 146.241 174.15 146.047 174.147 145.843V142.48C174.15 142.096 174.001 141.726 173.732 141.451C173.463 141.176 173.096 141.018 172.712 141.012C172.512 141.003 172.312 141.034 172.125 141.104C171.938 141.174 171.767 141.282 171.623 141.421C171.479 141.559 171.365 141.725 171.287 141.91C171.21 142.094 171.171 142.292 171.173 142.491V142.491Z" fill="#263238"/>
<path d="M178.266 143.058C178.26 142.128 178.621 141.233 179.27 140.566C179.92 139.9 180.807 139.516 181.738 139.498C182.636 139.479 183.505 139.816 184.156 140.436C184.806 141.055 185.185 141.906 185.209 142.804V142.873C185.215 142.915 185.215 142.958 185.209 143C185.181 143.171 185.088 143.324 184.951 143.429C184.813 143.534 184.641 143.583 184.469 143.566H179.944C180.005 143.924 180.175 144.255 180.43 144.514C180.797 144.878 181.28 145.103 181.796 145.15C182.316 145.201 182.838 145.075 183.277 144.792C183.424 144.663 183.613 144.592 183.809 144.592C184.005 144.592 184.194 144.663 184.341 144.792C184.463 144.915 184.531 145.081 184.531 145.254C184.531 145.427 184.463 145.593 184.341 145.716C183.829 146.185 183.191 146.495 182.506 146.61C181.82 146.725 181.116 146.639 180.479 146.363C179.841 146.086 179.297 145.632 178.913 145.053C178.529 144.475 178.32 143.798 178.312 143.104L178.266 143.058ZM179.828 142.364H183.855C183.696 141.931 183.41 141.555 183.035 141.285C182.659 141.015 182.212 140.863 181.749 140.85C181.299 140.851 180.862 141.007 180.512 141.291C180.163 141.575 179.921 141.97 179.828 142.411V142.364Z" fill="#263238"/>
<path d="M415.593 157.944H144.094V184.158H415.593V157.944Z" fill="#EBEBEB"/>
<path d="M154.798 167.249C154.798 167.187 154.823 167.129 154.866 167.085C154.91 167.042 154.969 167.018 155.03 167.018H158.501C158.532 167.016 158.563 167.021 158.592 167.032C158.621 167.043 158.647 167.06 158.669 167.082C158.691 167.103 158.708 167.13 158.719 167.158C158.73 167.187 158.735 167.218 158.733 167.249C158.734 167.28 158.73 167.311 158.719 167.341C158.708 167.37 158.691 167.397 158.669 167.42C158.648 167.442 158.622 167.46 158.593 167.473C158.564 167.485 158.533 167.491 158.501 167.491H155.284V170.15H158.096C158.158 170.15 158.217 170.174 158.26 170.217C158.303 170.261 158.328 170.32 158.328 170.381C158.328 170.442 158.303 170.501 158.26 170.544C158.217 170.588 158.158 170.612 158.096 170.612H155.284V173.27H158.501C158.533 173.27 158.564 173.277 158.593 173.289C158.622 173.301 158.648 173.319 158.669 173.342C158.691 173.365 158.708 173.392 158.719 173.421C158.73 173.451 158.734 173.482 158.733 173.513C158.733 173.574 158.708 173.633 158.665 173.677C158.622 173.72 158.563 173.744 158.501 173.744H155.03C154.973 173.739 154.92 173.712 154.881 173.669C154.842 173.626 154.821 173.571 154.822 173.513L154.798 167.249Z" fill="#A6A6A6"/>
<path d="M163.767 170.959C163.767 170.573 163.613 170.202 163.34 169.929C163.066 169.656 162.695 169.503 162.309 169.503C161.924 169.509 161.556 169.664 161.284 169.936C161.012 170.208 160.857 170.575 160.851 170.959V173.548C160.857 173.582 160.857 173.618 160.851 173.652C160.831 173.68 160.805 173.703 160.775 173.719C160.745 173.735 160.711 173.744 160.677 173.744V173.744C160.61 173.722 160.552 173.677 160.515 173.617V173.617V169.318C160.513 169.287 160.518 169.256 160.529 169.227C160.54 169.198 160.557 169.172 160.579 169.151C160.601 169.129 160.627 169.112 160.656 169.101C160.685 169.09 160.716 169.085 160.746 169.087C160.776 169.086 160.806 169.092 160.833 169.104C160.861 169.116 160.886 169.133 160.906 169.155C160.927 169.176 160.943 169.202 160.953 169.23C160.963 169.258 160.968 169.288 160.966 169.318V169.768C161.144 169.554 161.367 169.382 161.619 169.264C161.871 169.146 162.146 169.086 162.424 169.087C162.934 169.087 163.422 169.289 163.783 169.648C164.143 170.008 164.345 170.496 164.345 171.005V173.559C164.342 173.62 164.317 173.677 164.274 173.72C164.232 173.763 164.174 173.788 164.114 173.791C164.052 173.791 163.994 173.766 163.95 173.723C163.907 173.68 163.882 173.621 163.882 173.559L163.767 170.959Z" fill="#A6A6A6"/>
<path d="M167.944 169.26C167.939 169.319 167.913 169.375 167.87 169.418C167.828 169.46 167.772 169.486 167.713 169.491H167.099V172.958C167.105 173.049 167.143 173.134 167.207 173.198C167.271 173.261 167.356 173.3 167.446 173.305C167.509 173.31 167.568 173.338 167.612 173.382C167.657 173.427 167.684 173.485 167.689 173.548C167.684 173.609 167.656 173.667 167.611 173.709C167.567 173.752 167.508 173.776 167.446 173.779C167.338 173.782 167.229 173.763 167.128 173.723C167.027 173.683 166.935 173.623 166.858 173.546C166.781 173.469 166.721 173.377 166.681 173.276C166.641 173.175 166.622 173.067 166.625 172.958V169.491H166.035C165.803 169.491 165.803 169.375 165.803 169.26C165.803 169.144 165.803 169.029 166.035 169.029H166.625V167.33C166.63 167.27 166.656 167.214 166.698 167.172C166.741 167.13 166.797 167.104 166.856 167.099C166.918 167.101 166.977 167.126 167.021 167.168C167.066 167.211 167.094 167.268 167.099 167.33V169.075H167.713C167.766 169.078 167.817 169.097 167.858 169.13C167.9 169.163 167.93 169.209 167.944 169.26V169.26Z" fill="#A6A6A6"/>
<path d="M169.425 171.398C169.356 171.069 169.359 170.728 169.435 170.4C169.512 170.073 169.658 169.765 169.866 169.5C170.073 169.235 170.336 169.018 170.636 168.865C170.936 168.711 171.265 168.625 171.602 168.612C171.939 168.6 172.274 168.66 172.585 168.79C172.896 168.921 173.174 169.117 173.401 169.366C173.628 169.614 173.798 169.91 173.898 170.231C173.999 170.552 174.029 170.891 173.985 171.225C173.983 171.254 173.976 171.282 173.964 171.308C173.951 171.334 173.934 171.357 173.912 171.377C173.891 171.396 173.865 171.411 173.838 171.421C173.811 171.43 173.782 171.434 173.753 171.433H169.911C169.923 171.91 170.118 172.365 170.456 172.703C170.795 173.041 171.25 173.236 171.728 173.247C172.034 173.245 172.335 173.165 172.602 173.016C172.869 172.866 173.094 172.652 173.256 172.392C173.27 172.367 173.289 172.345 173.312 172.327C173.335 172.31 173.361 172.297 173.389 172.289C173.417 172.282 173.446 172.28 173.475 172.284C173.504 172.287 173.531 172.297 173.556 172.311C173.583 172.327 173.607 172.347 173.626 172.372C173.645 172.397 173.658 172.425 173.666 172.456C173.674 172.486 173.675 172.517 173.67 172.548C173.665 172.579 173.654 172.608 173.637 172.635C173.433 172.958 173.151 173.225 172.818 173.412C172.485 173.6 172.11 173.702 171.728 173.71C171.116 173.707 170.531 173.462 170.099 173.029C169.668 172.595 169.425 172.009 169.425 171.398ZM169.911 171.017H173.475C173.407 170.595 173.192 170.211 172.869 169.932C172.545 169.652 172.133 169.496 171.705 169.491C171.274 169.496 170.859 169.651 170.532 169.929C170.204 170.208 169.984 170.593 169.911 171.017V171.017Z" fill="#A6A6A6"/>
<path d="M175.419 169.271C175.418 169.241 175.423 169.21 175.434 169.181C175.445 169.152 175.462 169.126 175.484 169.104C175.505 169.082 175.532 169.065 175.56 169.054C175.589 169.043 175.62 169.039 175.651 169.04C175.712 169.04 175.771 169.065 175.815 169.108C175.858 169.151 175.882 169.21 175.882 169.271V170.312C175.897 170.271 175.916 170.232 175.94 170.196C176.133 169.861 176.407 169.58 176.736 169.378C177.066 169.176 177.44 169.06 177.826 169.04C177.857 169.039 177.888 169.043 177.917 169.054C177.946 169.065 177.972 169.082 177.994 169.104C178.016 169.126 178.033 169.152 178.044 169.181C178.055 169.21 178.059 169.241 178.058 169.271C178.058 169.333 178.033 169.392 177.99 169.435C177.947 169.478 177.888 169.503 177.826 169.503C177.553 169.514 177.287 169.59 177.05 169.724C176.812 169.859 176.61 170.048 176.461 170.277C176.223 170.611 176.032 170.977 175.894 171.363C175.89 171.39 175.89 171.417 175.894 171.444V173.513C175.891 173.574 175.866 173.631 175.823 173.674C175.78 173.716 175.723 173.742 175.662 173.744C175.601 173.744 175.542 173.72 175.499 173.677C175.455 173.633 175.431 173.575 175.431 173.513L175.419 169.271Z" fill="#A6A6A6"/>
<path d="M182.131 169.248C182.134 169.191 182.158 169.137 182.199 169.096C182.239 169.055 182.294 169.031 182.351 169.029C182.381 169.027 182.412 169.032 182.44 169.042C182.469 169.052 182.496 169.068 182.518 169.088C182.541 169.108 182.559 169.133 182.572 169.161C182.585 169.188 182.593 169.218 182.594 169.248V171.803C182.592 171.993 182.629 172.182 182.701 172.359C182.773 172.536 182.879 172.696 183.014 172.832C183.148 172.967 183.308 173.074 183.484 173.148C183.66 173.221 183.85 173.259 184.04 173.259C184.426 173.256 184.795 173.101 185.068 172.829C185.341 172.557 185.495 172.188 185.499 171.803V169.248C185.488 169.21 185.488 169.17 185.499 169.133V169.133C185.52 169.107 185.548 169.087 185.58 169.075H185.684H185.799L185.857 169.156C185.865 169.186 185.865 169.218 185.857 169.248V173.363C185.856 173.655 185.796 173.945 185.683 174.214C185.569 174.483 185.403 174.728 185.194 174.933C184.986 175.138 184.738 175.3 184.467 175.409C184.196 175.519 183.905 175.574 183.612 175.57C183.276 175.569 182.944 175.494 182.64 175.351C182.59 175.322 182.552 175.274 182.535 175.219C182.518 175.163 182.522 175.103 182.548 175.05C182.575 174.998 182.621 174.957 182.676 174.936C182.732 174.914 182.793 174.914 182.849 174.935C183.086 175.05 183.348 175.11 183.612 175.108C184.08 175.111 184.53 174.929 184.864 174.602C185.197 174.275 185.388 173.83 185.394 173.363V173.109C185.211 173.315 184.987 173.482 184.736 173.597C184.485 173.713 184.213 173.774 183.936 173.779C183.428 173.773 182.942 173.567 182.585 173.206C182.227 172.844 182.027 172.357 182.027 171.849L182.131 169.248Z" fill="#A6A6A6"/>
<path d="M189.907 169.029C190.368 169.013 190.823 169.134 191.215 169.378C191.606 169.622 191.915 169.977 192.102 170.398C192.29 170.819 192.348 171.286 192.268 171.74C192.188 172.193 191.974 172.613 191.654 172.944C191.334 173.275 190.922 173.504 190.471 173.6C190.02 173.696 189.55 173.655 189.122 173.483C188.695 173.31 188.329 173.014 188.07 172.633C187.812 172.251 187.674 171.801 187.674 171.34C187.674 170.741 187.906 170.165 188.323 169.734C188.74 169.302 189.308 169.05 189.907 169.029ZM189.907 173.282C190.29 173.31 190.673 173.222 191.005 173.029C191.337 172.837 191.603 172.549 191.768 172.203C191.934 171.858 191.992 171.47 191.934 171.091C191.875 170.712 191.704 170.359 191.442 170.079C191.181 169.799 190.84 169.604 190.466 169.519C190.091 169.435 189.7 169.466 189.343 169.607C188.986 169.748 188.68 169.993 188.465 170.311C188.25 170.628 188.136 171.003 188.137 171.386C188.124 171.871 188.303 172.341 188.634 172.696C188.965 173.05 189.422 173.261 189.907 173.282V173.282Z" fill="#A6A6A6"/>
<path d="M193.657 169.248C193.657 169.187 193.681 169.128 193.725 169.085C193.768 169.041 193.827 169.017 193.888 169.017C193.95 169.017 194.008 169.041 194.052 169.085C194.095 169.128 194.12 169.187 194.12 169.248V171.814C194.102 172.016 194.126 172.218 194.191 172.41C194.255 172.601 194.359 172.777 194.496 172.927C194.633 173.076 194.799 173.195 194.984 173.276C195.169 173.358 195.369 173.4 195.572 173.4C195.774 173.4 195.974 173.358 196.16 173.276C196.345 173.195 196.511 173.076 196.648 172.927C196.784 172.777 196.888 172.601 196.953 172.41C197.018 172.218 197.042 172.016 197.024 171.814V169.248C197.027 169.188 197.052 169.131 197.095 169.088C197.138 169.045 197.195 169.02 197.256 169.017C197.287 169.016 197.318 169.02 197.348 169.031C197.377 169.042 197.404 169.059 197.427 169.081C197.449 169.102 197.468 169.128 197.48 169.157C197.492 169.186 197.499 169.217 197.499 169.248V171.814C197.499 172.066 197.449 172.316 197.352 172.548C197.256 172.781 197.114 172.993 196.936 173.171C196.758 173.349 196.546 173.49 196.313 173.587C196.08 173.683 195.83 173.733 195.578 173.733C195.325 173.733 195.076 173.683 194.843 173.587C194.609 173.49 194.398 173.349 194.219 173.171C194.041 172.993 193.899 172.781 193.803 172.548C193.706 172.316 193.657 172.066 193.657 171.814V169.248Z" fill="#A6A6A6"/>
<path d="M199.651 169.271C199.651 169.24 199.657 169.209 199.67 169.18C199.682 169.151 199.7 169.125 199.723 169.104C199.745 169.082 199.772 169.065 199.802 169.054C199.831 169.043 199.863 169.039 199.894 169.04C199.924 169.04 199.953 169.046 199.981 169.058C200.008 169.07 200.033 169.087 200.054 169.109C200.074 169.13 200.09 169.156 200.1 169.184C200.111 169.212 200.115 169.242 200.114 169.271V170.312C200.133 170.271 200.156 170.232 200.183 170.196C200.376 169.861 200.65 169.58 200.979 169.378C201.309 169.176 201.683 169.06 202.069 169.04C202.1 169.039 202.131 169.043 202.16 169.054C202.189 169.065 202.215 169.082 202.237 169.104C202.259 169.126 202.276 169.152 202.287 169.181C202.298 169.21 202.303 169.241 202.301 169.271C202.301 169.333 202.276 169.392 202.233 169.435C202.19 169.478 202.131 169.503 202.069 169.503C201.796 169.512 201.529 169.587 201.291 169.722C201.053 169.857 200.852 170.047 200.704 170.277C200.457 170.606 200.265 170.973 200.137 171.363C200.129 171.39 200.129 171.418 200.137 171.444V173.513C200.137 173.573 200.114 173.63 200.073 173.673C200.032 173.716 199.976 173.741 199.917 173.744C199.886 173.746 199.854 173.741 199.825 173.73C199.795 173.719 199.769 173.702 199.746 173.681C199.723 173.659 199.705 173.633 199.693 173.604C199.68 173.576 199.674 173.545 199.674 173.513L199.651 169.271Z" fill="#A6A6A6"/>
<path d="M210.123 170.959C210.125 170.768 210.089 170.579 210.017 170.402C209.945 170.226 209.838 170.065 209.704 169.93C209.569 169.794 209.409 169.687 209.233 169.614C209.057 169.54 208.868 169.503 208.677 169.503C208.291 169.506 207.922 169.66 207.649 169.932C207.376 170.205 207.222 170.574 207.219 170.959V173.548C207.212 173.588 207.191 173.625 207.161 173.652C207.144 173.68 207.12 173.702 207.092 173.719C207.063 173.735 207.032 173.744 206.999 173.744H206.941C206.874 173.722 206.816 173.677 206.779 173.617V173.617V169.318C206.777 169.287 206.782 169.256 206.793 169.227C206.804 169.198 206.821 169.172 206.843 169.151C206.865 169.129 206.891 169.112 206.92 169.101C206.949 169.09 206.98 169.085 207.011 169.087C207.07 169.089 207.126 169.115 207.167 169.158C207.208 169.201 207.231 169.258 207.23 169.318V169.768C207.408 169.554 207.631 169.382 207.883 169.264C208.135 169.146 208.41 169.086 208.688 169.087C209.196 169.09 209.682 169.293 210.039 169.653C210.397 170.012 210.598 170.498 210.598 171.005V173.559C210.598 173.621 210.573 173.68 210.53 173.723C210.487 173.766 210.428 173.791 210.366 173.791C210.306 173.788 210.249 173.763 210.206 173.72C210.163 173.677 210.138 173.62 210.135 173.559L210.123 170.959Z" fill="#A6A6A6"/>
<path d="M216.615 169.26V173.513C216.615 173.575 216.591 173.633 216.547 173.677C216.504 173.72 216.445 173.744 216.384 173.744C216.322 173.744 216.264 173.72 216.22 173.677C216.177 173.633 216.152 173.575 216.152 173.513V172.808C215.951 173.092 215.686 173.324 215.379 173.487C215.071 173.649 214.73 173.738 214.382 173.744C213.756 173.744 213.155 173.496 212.713 173.054C212.27 172.612 212.021 172.012 212.021 171.387C212.021 170.761 212.27 170.161 212.713 169.719C213.155 169.277 213.756 169.029 214.382 169.029C214.729 169.033 215.07 169.119 215.378 169.28C215.685 169.44 215.951 169.671 216.152 169.953V169.26C216.152 169.199 216.177 169.14 216.22 169.096C216.264 169.053 216.322 169.029 216.384 169.029C216.445 169.029 216.504 169.053 216.547 169.096C216.591 169.14 216.615 169.199 216.615 169.26V169.26ZM216.152 171.387C216.128 171.043 216.003 170.715 215.794 170.441C215.585 170.167 215.301 169.961 214.976 169.846C214.651 169.732 214.3 169.714 213.965 169.796C213.63 169.878 213.327 170.056 213.092 170.307C212.857 170.559 212.7 170.874 212.642 171.213C212.583 171.552 212.625 171.901 212.762 172.217C212.899 172.532 213.125 172.801 213.413 172.991C213.701 173.18 214.037 173.281 214.382 173.282C214.626 173.278 214.867 173.225 215.091 173.127C215.314 173.029 215.516 172.888 215.685 172.712C215.854 172.536 215.986 172.328 216.074 172.1C216.163 171.873 216.205 171.63 216.199 171.387H216.152Z" fill="#A6A6A6"/>
<path d="M225.352 170.959C225.37 170.758 225.346 170.555 225.281 170.363C225.216 170.172 225.112 169.996 224.976 169.846C224.839 169.697 224.673 169.578 224.488 169.497C224.302 169.415 224.102 169.373 223.9 169.373C223.697 169.373 223.497 169.415 223.312 169.497C223.127 169.578 222.96 169.697 222.824 169.846C222.687 169.996 222.583 170.172 222.518 170.363C222.454 170.555 222.429 170.758 222.447 170.959V173.571C222.425 173.625 222.384 173.67 222.332 173.698C222.294 173.708 222.254 173.708 222.216 173.698H222.147V171.086C222.165 170.885 222.14 170.682 222.076 170.49C222.011 170.299 221.907 170.123 221.77 169.974C221.634 169.824 221.467 169.705 221.282 169.624C221.097 169.542 220.897 169.5 220.694 169.5C220.492 169.5 220.292 169.542 220.106 169.624C219.921 169.705 219.755 169.824 219.618 169.974C219.482 170.123 219.378 170.299 219.313 170.49C219.248 170.682 219.224 170.885 219.242 171.086V173.64C219.244 173.678 219.236 173.715 219.217 173.748C219.199 173.781 219.171 173.808 219.138 173.825H219.045C219 173.817 218.958 173.796 218.923 173.766C218.888 173.735 218.863 173.696 218.849 173.652V169.341C218.849 169.283 218.872 169.227 218.913 169.185C218.954 169.144 219.01 169.121 219.069 169.121C219.098 169.12 219.128 169.124 219.156 169.134C219.184 169.145 219.21 169.161 219.232 169.181C219.253 169.202 219.27 169.227 219.282 169.254C219.294 169.281 219.3 169.311 219.3 169.341V169.792C219.501 169.555 219.758 169.372 220.046 169.257C220.335 169.142 220.648 169.099 220.957 169.132C221.266 169.165 221.562 169.273 221.82 169.446C222.077 169.62 222.289 169.853 222.436 170.127C222.603 169.824 222.847 169.572 223.144 169.395C223.441 169.218 223.78 169.124 224.125 169.121C224.635 169.121 225.123 169.323 225.484 169.683C225.844 170.043 226.046 170.531 226.046 171.04V173.594C226.046 173.655 226.022 173.714 225.979 173.758C225.935 173.801 225.876 173.825 225.815 173.825C225.753 173.825 225.695 173.801 225.651 173.758C225.608 173.714 225.583 173.655 225.583 173.594L225.352 170.959Z" fill="#A6A6A6"/>
<path d="M227.435 171.398C227.427 171.09 227.481 170.783 227.594 170.496C227.707 170.209 227.876 169.947 228.092 169.726C228.308 169.505 228.565 169.33 228.85 169.21C229.135 169.09 229.44 169.029 229.749 169.029C230.344 169.028 230.915 169.256 231.346 169.664C231.777 170.073 232.034 170.632 232.064 171.225V171.225C232.064 171.253 232.058 171.281 232.047 171.307C232.036 171.333 232.019 171.357 231.999 171.376C231.978 171.396 231.954 171.411 231.927 171.42C231.9 171.43 231.872 171.434 231.844 171.433H227.886C227.898 171.912 228.095 172.369 228.436 172.707C228.776 173.045 229.234 173.239 229.715 173.247C230.021 173.245 230.321 173.165 230.588 173.016C230.855 172.866 231.08 172.652 231.242 172.392C231.256 172.367 231.276 172.345 231.299 172.327C231.322 172.31 231.348 172.297 231.376 172.289C231.404 172.282 231.433 172.28 231.461 172.284C231.49 172.287 231.518 172.297 231.543 172.311C231.595 172.345 231.633 172.397 231.648 172.457C231.663 172.517 231.654 172.581 231.624 172.635C231.419 172.958 231.138 173.225 230.805 173.412C230.472 173.6 230.097 173.702 229.715 173.71C229.107 173.701 228.527 173.453 228.1 173.02C227.674 172.588 227.435 172.005 227.435 171.398V171.398ZM227.921 171.017H231.485C231.417 170.595 231.202 170.211 230.878 169.932C230.554 169.652 230.142 169.496 229.715 169.491C229.284 169.496 228.869 169.651 228.541 169.93C228.214 170.208 227.994 170.593 227.921 171.017Z" fill="#A6A6A6"/>
<path d="M239.979 170.89C239.946 170.515 239.774 170.167 239.496 169.913C239.219 169.659 238.856 169.519 238.48 169.519C238.104 169.519 237.741 169.659 237.464 169.913C237.187 170.167 237.015 170.515 236.982 170.89V173.536C236.948 173.593 236.894 173.634 236.831 173.652H236.762C236.696 173.647 236.634 173.619 236.588 173.571C236.584 173.544 236.584 173.517 236.588 173.49C236.583 173.467 236.583 173.444 236.588 173.421V167.156C236.591 167.096 236.616 167.039 236.659 166.996C236.702 166.953 236.759 166.928 236.82 166.925C236.851 166.924 236.882 166.928 236.912 166.939C236.941 166.95 236.968 166.967 236.991 166.989C237.014 167.01 237.032 167.036 237.044 167.065C237.056 167.094 237.063 167.125 237.063 167.156V169.63C237.247 169.413 237.475 169.239 237.733 169.119C237.991 169 238.271 168.937 238.555 168.936C238.808 168.924 239.061 168.963 239.299 169.05C239.536 169.138 239.753 169.273 239.937 169.447C240.121 169.621 240.268 169.83 240.368 170.062C240.469 170.294 240.521 170.544 240.523 170.797V173.421C240.523 173.482 240.498 173.541 240.455 173.584C240.411 173.628 240.353 173.652 240.291 173.652C240.23 173.652 240.171 173.628 240.128 173.584C240.084 173.541 240.06 173.482 240.06 173.421L239.979 170.89Z" fill="#A6A6A6"/>
<path d="M242.073 171.398C242.004 171.069 242.007 170.728 242.084 170.4C242.16 170.073 242.306 169.765 242.514 169.5C242.721 169.235 242.984 169.018 243.284 168.865C243.584 168.711 243.913 168.625 244.25 168.612C244.587 168.6 244.922 168.66 245.233 168.79C245.544 168.921 245.822 169.117 246.049 169.366C246.276 169.614 246.446 169.91 246.547 170.231C246.647 170.552 246.677 170.891 246.633 171.225C246.633 171.254 246.627 171.283 246.615 171.31C246.603 171.337 246.586 171.361 246.564 171.381C246.542 171.4 246.516 171.415 246.488 171.424C246.46 171.433 246.43 171.436 246.401 171.433H242.536C242.548 171.912 242.745 172.369 243.086 172.707C243.426 173.045 243.884 173.239 244.365 173.247C244.669 173.246 244.969 173.167 245.234 173.017C245.5 172.867 245.722 172.652 245.88 172.392C245.912 172.341 245.962 172.303 246.02 172.288C246.079 172.273 246.141 172.281 246.193 172.311C246.243 172.346 246.279 172.399 246.291 172.459C246.304 172.519 246.294 172.582 246.262 172.635C246.064 172.961 245.786 173.231 245.454 173.419C245.122 173.608 244.747 173.708 244.365 173.71C243.755 173.704 243.172 173.457 242.743 173.025C242.314 172.592 242.073 172.007 242.073 171.398ZM242.559 171.017H246.135C246.075 170.586 245.861 170.191 245.532 169.906C245.204 169.62 244.783 169.463 244.347 169.463C243.912 169.463 243.491 169.62 243.162 169.906C242.834 170.191 242.62 170.586 242.559 171.017V171.017Z" fill="#A6A6A6"/>
<path d="M248.068 169.271C248.067 169.24 248.074 169.209 248.086 169.18C248.099 169.151 248.117 169.125 248.139 169.104C248.162 169.082 248.189 169.065 248.218 169.054C248.248 169.043 248.279 169.039 248.311 169.04C248.34 169.04 248.37 169.046 248.397 169.058C248.425 169.07 248.45 169.087 248.47 169.109C248.491 169.13 248.507 169.156 248.517 169.184C248.527 169.212 248.532 169.242 248.53 169.271V170.312C248.549 170.271 248.572 170.232 248.6 170.196C248.793 169.861 249.066 169.58 249.396 169.378C249.725 169.176 250.1 169.06 250.486 169.04C250.516 169.04 250.545 169.046 250.573 169.058C250.6 169.07 250.625 169.087 250.646 169.109C250.666 169.13 250.682 169.156 250.693 169.184C250.703 169.212 250.708 169.242 250.706 169.271C250.706 169.331 250.683 169.388 250.642 169.431C250.601 169.474 250.545 169.5 250.486 169.503C250.212 169.511 249.945 169.585 249.707 169.72C249.469 169.855 249.268 170.046 249.121 170.277C248.873 170.606 248.682 170.973 248.554 171.363C248.545 171.39 248.545 171.418 248.554 171.444V173.513C248.554 173.573 248.531 173.63 248.49 173.673C248.449 173.716 248.393 173.741 248.334 173.744C248.302 173.746 248.271 173.741 248.242 173.73C248.212 173.719 248.185 173.702 248.162 173.681C248.14 173.659 248.122 173.633 248.109 173.604C248.097 173.576 248.091 173.545 248.091 173.513L248.068 169.271Z" fill="#A6A6A6"/>
<path d="M251.47 171.398C251.462 171.09 251.516 170.783 251.629 170.496C251.742 170.209 251.911 169.947 252.127 169.726C252.342 169.505 252.6 169.33 252.885 169.21C253.169 169.09 253.475 169.029 253.784 169.029C254.378 169.028 254.95 169.256 255.381 169.664C255.812 170.073 256.069 170.632 256.098 171.225V171.225C256.099 171.254 256.092 171.283 256.081 171.31C256.069 171.337 256.051 171.361 256.029 171.381C256.008 171.4 255.982 171.415 255.954 171.424C255.926 171.433 255.896 171.436 255.867 171.433H252.002C252.014 171.912 252.211 172.369 252.551 172.707C252.892 173.045 253.35 173.239 253.83 173.247C254.135 173.246 254.434 173.167 254.7 173.017C254.965 172.867 255.188 172.652 255.346 172.392C255.377 172.341 255.428 172.303 255.486 172.288C255.544 172.273 255.606 172.281 255.659 172.311C255.709 172.346 255.745 172.398 255.76 172.458C255.775 172.517 255.767 172.58 255.74 172.635C255.535 172.958 255.254 173.225 254.92 173.412C254.587 173.6 254.213 173.702 253.83 173.71C253.522 173.716 253.217 173.661 252.93 173.547C252.644 173.434 252.384 173.264 252.164 173.049C251.944 172.834 251.769 172.577 251.65 172.294C251.531 172.01 251.47 171.706 251.47 171.398ZM251.967 171.017H255.543C255.475 170.595 255.26 170.211 254.936 169.932C254.612 169.652 254.2 169.496 253.772 169.491C253.34 169.493 252.922 169.647 252.592 169.926C252.262 170.205 252.041 170.591 251.967 171.017V171.017Z" fill="#A6A6A6"/>
<path d="M220.145 195.288H144.094V219.19H220.145V195.288Z" fill="#3898FF"/>
<path d="M156.141 207.228C156.162 206.089 156.63 205.005 157.443 204.207C158.257 203.41 159.352 202.963 160.492 202.963C161.484 202.956 162.449 203.282 163.234 203.888C163.371 204.001 163.46 204.161 163.483 204.337C163.507 204.512 163.463 204.69 163.362 204.835C163.252 204.977 163.091 205.069 162.913 205.093C162.736 205.117 162.556 205.07 162.413 204.963C161.868 204.53 161.188 204.301 160.492 204.315C159.698 204.317 158.936 204.623 158.363 205.171C158.09 205.44 157.872 205.76 157.723 206.113C157.574 206.466 157.497 206.845 157.495 207.228C157.494 207.611 157.571 207.991 157.72 208.344C157.869 208.698 158.087 209.018 158.363 209.285C158.936 209.833 159.698 210.139 160.492 210.141C161.188 210.153 161.867 209.925 162.413 209.493C162.559 209.394 162.736 209.352 162.911 209.376C163.087 209.399 163.247 209.486 163.362 209.62C163.463 209.765 163.507 209.944 163.483 210.119C163.46 210.295 163.371 210.455 163.234 210.568C162.449 211.174 161.484 211.5 160.492 211.493C159.351 211.496 158.254 211.05 157.44 210.252C156.626 209.454 156.159 208.367 156.141 207.228V207.228Z" fill="white"/>
<path d="M165.965 210.626C165.428 210.067 165.133 209.32 165.144 208.546C165.149 207.774 165.442 207.032 165.965 206.465C166.224 206.182 166.538 205.956 166.889 205.8C167.239 205.645 167.618 205.565 168.002 205.564C168.377 205.563 168.748 205.644 169.09 205.799C169.431 205.955 169.735 206.182 169.981 206.465C170.518 207.025 170.816 207.771 170.814 208.546C170.823 208.931 170.753 209.313 170.61 209.671C170.467 210.028 170.253 210.353 169.981 210.626C169.736 210.911 169.433 211.139 169.091 211.295C168.749 211.451 168.378 211.53 168.002 211.528C167.618 211.529 167.238 211.45 166.887 211.295C166.536 211.139 166.222 210.911 165.965 210.626V210.626ZM166.44 208.546C166.426 209.003 166.578 209.45 166.868 209.805C167.023 209.949 167.205 210.061 167.404 210.134C167.602 210.208 167.814 210.241 168.025 210.233C168.43 210.238 168.82 210.084 169.113 209.805C169.423 209.46 169.588 209.009 169.576 208.546C169.586 208.089 169.42 207.647 169.113 207.309C168.817 207.032 168.43 206.872 168.025 206.858C167.597 206.86 167.184 207.02 166.868 207.309C166.581 207.656 166.429 208.095 166.44 208.546V208.546Z" fill="white"/>
<path d="M177.78 208.037V210.869C177.782 210.95 177.767 211.031 177.737 211.107C177.707 211.182 177.662 211.251 177.605 211.309C177.548 211.367 177.479 211.414 177.404 211.445C177.329 211.477 177.248 211.493 177.167 211.493C177.001 211.493 176.842 211.427 176.725 211.31C176.608 211.193 176.542 211.034 176.542 210.869V208.037C176.524 207.722 176.385 207.426 176.155 207.211C175.924 206.996 175.619 206.878 175.304 206.881C174.997 206.881 174.703 207.003 174.486 207.22C174.269 207.436 174.147 207.73 174.147 208.037V210.869C174.156 210.907 174.156 210.946 174.147 210.984C174.117 211.128 174.039 211.257 173.925 211.35C173.811 211.443 173.669 211.493 173.522 211.493C173.439 211.494 173.357 211.479 173.281 211.448C173.204 211.418 173.135 211.372 173.076 211.313C173.018 211.255 172.972 211.186 172.941 211.109C172.91 211.033 172.895 210.951 172.897 210.869V206.245C172.895 206.163 172.91 206.08 172.941 206.003C172.972 205.926 173.018 205.856 173.076 205.797C173.134 205.737 173.203 205.69 173.28 205.658C173.356 205.626 173.439 205.61 173.522 205.61C173.643 205.61 173.763 205.644 173.865 205.71C173.968 205.776 174.049 205.869 174.1 205.98C174.479 205.743 174.915 205.616 175.362 205.61C175.999 205.627 176.606 205.889 177.056 206.341C177.506 206.793 177.766 207.4 177.78 208.037V208.037Z" fill="white"/>
<path d="M182.779 206.222C182.776 206.395 182.705 206.56 182.582 206.681C182.459 206.802 182.293 206.87 182.12 206.87H181.819V210.175C181.906 210.175 181.993 210.193 182.074 210.226C182.155 210.26 182.228 210.31 182.289 210.372C182.351 210.435 182.399 210.509 182.431 210.59C182.464 210.671 182.48 210.758 182.478 210.846C182.478 210.932 182.461 211.017 182.428 211.096C182.395 211.175 182.346 211.247 182.284 211.307C182.223 211.368 182.15 211.415 182.07 211.447C181.99 211.479 181.905 211.494 181.819 211.493C181.47 211.49 181.136 211.35 180.889 211.104C180.643 210.857 180.503 210.524 180.5 210.175V206.87H180.164C180.071 206.882 179.976 206.874 179.886 206.847C179.796 206.82 179.713 206.774 179.642 206.712C179.572 206.65 179.515 206.574 179.476 206.489C179.437 206.403 179.417 206.31 179.417 206.217C179.417 206.123 179.437 206.03 179.476 205.944C179.515 205.859 179.572 205.783 179.642 205.721C179.713 205.659 179.796 205.613 179.886 205.586C179.976 205.559 180.071 205.551 180.164 205.564H180.5V203.853C180.5 203.766 180.517 203.679 180.551 203.598C180.585 203.517 180.634 203.444 180.697 203.383C180.759 203.322 180.833 203.273 180.915 203.241C180.996 203.209 181.083 203.193 181.171 203.194C181.257 203.194 181.342 203.211 181.421 203.245C181.501 203.278 181.573 203.327 181.633 203.388C181.693 203.449 181.741 203.522 181.773 203.602C181.805 203.682 181.82 203.767 181.819 203.853V205.564H182.12C182.295 205.564 182.462 205.633 182.586 205.757C182.71 205.88 182.779 206.048 182.779 206.222V206.222Z" fill="white"/>
<path d="M186.112 204.084C186.124 204.176 186.117 204.269 186.09 204.357C186.064 204.445 186.018 204.527 185.957 204.597C185.897 204.666 185.822 204.722 185.737 204.76C185.653 204.798 185.562 204.818 185.47 204.818C185.377 204.818 185.286 204.798 185.202 204.76C185.118 204.722 185.043 204.666 184.982 204.597C184.921 204.527 184.876 204.445 184.849 204.357C184.822 204.269 184.815 204.176 184.827 204.084V203.841C184.815 203.75 184.822 203.657 184.849 203.569C184.876 203.48 184.921 203.399 184.982 203.329C185.043 203.26 185.118 203.204 185.202 203.166C185.286 203.128 185.377 203.108 185.47 203.108C185.562 203.108 185.653 203.128 185.737 203.166C185.822 203.204 185.897 203.26 185.957 203.329C186.018 203.399 186.064 203.48 186.09 203.569C186.117 203.657 186.124 203.75 186.112 203.841V204.084ZM186.112 206.234V210.857C186.091 211.012 186.014 211.155 185.896 211.258C185.778 211.361 185.627 211.418 185.47 211.418C185.313 211.418 185.161 211.361 185.043 211.258C184.925 211.155 184.848 211.012 184.827 210.857V206.234C184.815 206.143 184.822 206.049 184.849 205.961C184.876 205.873 184.921 205.791 184.982 205.722C185.043 205.652 185.118 205.596 185.202 205.558C185.286 205.52 185.377 205.5 185.47 205.5C185.562 205.5 185.653 205.52 185.737 205.558C185.822 205.596 185.897 205.652 185.957 205.722C186.018 205.791 186.064 205.873 186.09 205.961C186.117 206.049 186.124 206.143 186.112 206.234Z" fill="white"/>
<path d="M193.148 208.037V210.869C193.148 211.032 193.083 211.189 192.969 211.306C192.854 211.423 192.698 211.49 192.534 211.493C192.367 211.493 192.207 211.427 192.088 211.311C191.969 211.194 191.901 211.035 191.898 210.869V208.037C191.898 207.879 191.866 207.723 191.804 207.578C191.741 207.433 191.65 207.302 191.535 207.194C191.42 207.086 191.284 207.002 191.135 206.948C190.987 206.895 190.829 206.872 190.671 206.881C190.364 206.881 190.07 207.003 189.853 207.22C189.636 207.436 189.514 207.73 189.514 208.037V210.869C189.524 210.907 189.524 210.946 189.514 210.984C189.483 211.127 189.404 211.255 189.29 211.347C189.177 211.44 189.035 211.491 188.889 211.493C188.806 211.494 188.724 211.479 188.646 211.449C188.569 211.418 188.499 211.372 188.44 211.314C188.381 211.256 188.333 211.187 188.301 211.11C188.269 211.034 188.253 210.952 188.253 210.869V206.245C188.253 206.162 188.269 206.079 188.301 206.002C188.333 205.925 188.38 205.855 188.439 205.796C188.498 205.737 188.568 205.69 188.646 205.658C188.723 205.626 188.806 205.61 188.889 205.61C189.011 205.611 189.129 205.646 189.232 205.712C189.334 205.777 189.416 205.87 189.468 205.98C189.846 205.743 190.283 205.616 190.729 205.61C191.367 205.627 191.974 205.889 192.424 206.341C192.874 206.793 193.133 207.4 193.148 208.037V208.037Z" fill="white"/>
<path d="M197.823 211.493C197.17 211.49 196.545 211.229 196.083 210.768C195.621 210.307 195.361 209.683 195.358 209.031V206.199C195.346 206.109 195.353 206.018 195.379 205.931C195.405 205.844 195.449 205.764 195.509 205.696C195.569 205.627 195.642 205.572 195.725 205.535C195.808 205.497 195.898 205.478 195.988 205.478C196.079 205.478 196.169 205.497 196.252 205.535C196.334 205.572 196.408 205.627 196.468 205.696C196.527 205.764 196.572 205.844 196.598 205.931C196.624 206.018 196.631 206.109 196.619 206.199V209.031C196.619 209.337 196.741 209.631 196.958 209.848C197.175 210.065 197.469 210.187 197.776 210.187C198.094 210.193 198.402 210.076 198.635 209.861C198.868 209.645 199.008 209.348 199.026 209.031V206.199C199.024 206.117 199.039 206.036 199.069 205.959C199.099 205.883 199.144 205.814 199.201 205.754C199.258 205.695 199.326 205.648 199.401 205.615C199.476 205.583 199.557 205.565 199.639 205.564C199.807 205.569 199.967 205.638 200.087 205.755C200.207 205.873 200.279 206.031 200.287 206.199V209.031C200.275 209.68 200.012 210.299 199.552 210.759C199.093 211.218 198.473 211.481 197.823 211.493Z" fill="white"/>
<path d="M202.312 208.534C202.308 208.148 202.379 207.766 202.523 207.408C202.666 207.05 202.879 206.724 203.149 206.448C203.418 206.172 203.74 205.952 204.095 205.8C204.45 205.648 204.831 205.568 205.217 205.564C205.958 205.56 206.672 205.846 207.205 206.359C207.739 206.873 208.051 207.574 208.075 208.314V208.384C208.081 208.418 208.081 208.453 208.075 208.488C208.05 208.631 207.971 208.759 207.855 208.847C207.74 208.934 207.595 208.975 207.45 208.962H203.678C203.737 209.253 203.877 209.521 204.083 209.736C204.395 210.044 204.803 210.236 205.24 210.279C205.671 210.316 206.102 210.211 206.467 209.979C206.588 209.867 206.747 209.806 206.912 209.806C207.077 209.806 207.236 209.867 207.358 209.979C207.409 210.028 207.449 210.088 207.477 210.153C207.505 210.219 207.519 210.289 207.519 210.36C207.519 210.431 207.505 210.502 207.477 210.567C207.449 210.633 207.409 210.692 207.358 210.741C206.931 211.132 206.4 211.391 205.83 211.487C205.259 211.583 204.672 211.512 204.141 211.282C203.61 211.052 203.157 210.673 202.837 210.192C202.516 209.711 202.342 209.147 202.336 208.569L202.312 208.534ZM203.609 207.956H206.941C206.809 207.596 206.573 207.283 206.261 207.058C205.95 206.834 205.578 206.708 205.194 206.696C204.831 206.706 204.482 206.835 204.2 207.062C203.917 207.29 203.718 207.604 203.632 207.956H203.609Z" fill="white"/>
<path d="M367.315 200.085L371.747 210.776L367.315 212.614L362.86 201.842L355.547 207.517V177.374L376.665 198.687L367.315 200.085Z" fill="#263238"/>
<path d="M357.086 170.681V163.388" stroke="#263238" stroke-miterlimit="10"/>
<path d="M348.766 174.253L343.605 169.098" stroke="#263238" stroke-miterlimit="10"/>
<path d="M345.41 182.656H338.108" stroke="#263238" stroke-miterlimit="10"/>
<path d="M348.986 190.966L343.824 196.121" stroke="#263238" stroke-miterlimit="10"/>
<path d="M357.398 194.318V201.611" stroke="#263238" stroke-miterlimit="10"/>
<path d="M365.719 190.746L370.891 195.901" stroke="#263238" stroke-miterlimit="10"/>
<path d="M369.074 182.344H376.376" stroke="#263238" stroke-miterlimit="10"/>
<path d="M365.499 174.033L370.671 168.878" stroke="#263238" stroke-miterlimit="10"/>
<path d="M100.806 488.991L92.6586 541.983H101.963L117.663 488.991H100.806Z" fill="#263238"/>
<path d="M302.779 488.991L310.915 541.983H301.61L285.911 488.991H302.779Z" fill="#263238"/>
<path d="M58.5249 348.433C57.8703 372.341 51.6748 477.81 73.2655 497.889H100.081C107.095 497.889 106.698 494.576 106.429 487.586L101.332 350.739C101.25 348.107 100.319 345.573 98.6787 343.515C95.1718 339.16 88.0762 332.428 78.3622 333.083C73.12 333.336 68.0467 335.02 63.6917 337.954C62.0665 339.169 60.7512 340.751 59.8532 342.573C58.9553 344.394 58.5001 346.402 58.5249 348.433V348.433Z" fill="#455A64"/>
<path d="M301.564 499.423L100.081 497.889V435.554H301.564V499.423Z" fill="#455A64"/>
<path d="M300.757 435.554L98.9242 437.217V399.809L301.564 396.004L300.757 435.554Z" fill="#455A64"/>
<path d="M62.3357 341.42C62.3357 341.42 63.832 289.505 120.877 286.824C177.923 284.143 262.567 286.824 262.567 286.824C262.567 286.824 334.224 284.131 335.884 329.337L321.646 415.978H100.397L62.3357 341.42Z" fill="#455A64"/>
<path d="M344.359 353.947C342.851 389.728 339.555 494.681 314.703 499.423H296.222L301.938 346.115C301.938 346.115 310.506 331.151 324.779 332.065H325.212C330.614 332.511 335.632 335.043 339.205 339.126C342.778 343.21 344.626 348.524 344.359 353.947V353.947Z" fill="#455A64"/>
<path d="M334.178 334.289L333.5 334.125L331.571 333.598L330.168 333.212L328.415 332.943C327.783 332.861 327.106 332.732 326.381 332.65H324.043C320.051 332.683 316.124 333.666 312.587 335.519L311.804 335.905L311.044 336.373L309.501 337.345C308.469 338.071 307.478 338.852 306.532 339.687C304.472 341.52 302.664 343.618 301.155 345.927V345.822C300.406 361.663 299.471 381.673 298.454 403.38C297.285 429.806 296.432 453.726 295.953 471.066C295.731 479.718 295.567 486.72 295.438 491.59C295.438 493.991 295.333 495.876 295.31 497.175C295.31 497.796 295.31 498.276 295.251 498.627C295.193 498.978 295.251 499.119 295.251 499.119C295.251 499.119 295.251 498.955 295.251 498.627C295.251 498.299 295.251 497.784 295.251 497.175C295.251 495.864 295.251 493.991 295.251 491.59C295.251 486.743 295.403 479.73 295.579 471.066C295.964 453.726 296.748 429.782 297.917 403.357C298.887 381.638 299.904 361.616 300.722 345.798C300.712 345.768 300.712 345.735 300.722 345.705C302.258 343.368 304.102 341.249 306.204 339.406C307.166 338.547 308.177 337.746 309.232 337.006L310.798 336.022L311.57 335.554L312.365 335.167C315.958 333.314 319.943 332.351 323.984 332.357L326.322 332.439C327.047 332.521 327.725 332.662 328.368 332.755L330.121 333.048L331.524 333.47L333.441 334.067L334.178 334.289Z" fill="#263238"/>
<path d="M100.397 437.041H101.402H104.348H115.699L157.442 437.147C192.687 437.275 241.374 437.662 295.134 436.889H297.367L297.075 437.158C297.274 430.766 297.461 424.443 297.648 418.226C297.741 415.104 297.835 412.013 297.928 408.953L298.068 404.375C298.068 403.626 298.139 402.841 298.068 402.127C298.033 401.405 297.833 400.7 297.484 400.066C297.125 399.429 296.635 398.876 296.046 398.442C295.458 398.008 294.785 397.704 294.071 397.549C293.326 397.417 292.569 397.374 291.815 397.42H289.477H280.335L262.637 397.537L201.442 398.17C184.036 398.345 169.962 398.416 160.236 398.427H149.049H146.139C145.484 398.427 145.145 398.427 145.145 398.427H146.139H149.049L160.236 398.345L201.442 397.912L262.626 397.151L280.335 397.022H289.477H291.815C292.597 396.975 293.382 397.022 294.152 397.163C294.944 397.335 295.689 397.674 296.34 398.156C296.991 398.639 297.532 399.254 297.928 399.961C298.318 400.658 298.542 401.435 298.583 402.232C298.583 403.04 298.583 403.766 298.583 404.574C298.583 406.085 298.501 407.618 298.454 409.152C298.361 412.204 298.267 415.291 298.174 418.413C297.987 424.658 297.8 430.972 297.613 437.357C297.602 437.429 297.567 437.495 297.514 437.544C297.461 437.593 297.392 437.622 297.32 437.627H295.099C241.327 438.399 192.64 437.955 157.396 437.72L115.652 437.451L104.301 437.369H101.356L100.397 437.041Z" fill="#263238"/>
<g opacity="0.2">
<path opacity="0.2" d="M98.9242 437.205C145.168 447.251 167.192 446.49 210.186 447.228C248.762 447.895 291.23 440.928 297.367 436.784L98.9242 437.205Z" fill="black"/>
</g>
<path d="M100.081 497.889C100.071 497.718 100.071 497.546 100.081 497.374C100.081 497 100.081 496.496 100.081 495.852C100.081 494.494 100.081 492.527 100.081 489.998C100.081 484.893 100.187 477.576 100.269 468.537C100.491 450.389 100.783 425.368 101.11 397.737C101.309 383.909 101.484 370.737 101.648 358.76C101.735 355.862 101.34 352.969 100.479 350.201C99.6293 347.611 98.3746 345.173 96.7616 342.977C95.204 340.963 93.361 339.188 91.2909 337.708C89.3657 336.392 87.2641 335.355 85.0486 334.629C81.1716 333.432 77.0504 333.267 73.0901 334.149C70.0941 334.789 67.2563 336.023 64.7438 337.778C63.1711 338.907 61.7796 340.269 60.6173 341.818C59.8224 342.883 59.5068 343.515 59.4484 343.492C59.5099 343.332 59.5882 343.179 59.6822 343.035C59.9306 342.591 60.2038 342.161 60.5004 341.747C61.6262 340.146 63.004 338.739 64.5801 337.579C67.1009 335.766 69.9649 334.487 72.9966 333.821C77.014 332.886 81.206 333.023 85.1538 334.219C87.4336 334.946 89.5984 335.995 91.5831 337.333C93.7016 338.836 95.5915 340.639 97.1941 342.684C100.681 347.298 102.444 352.991 102.174 358.771C102.022 370.761 101.858 383.933 101.683 397.76C101.285 425.392 100.923 450.447 100.666 468.548C100.502 477.587 100.374 484.94 100.28 490.01C100.28 492.527 100.187 494.482 100.152 495.864C100.152 496.52 100.152 497.035 100.152 497.386C100.14 497.555 100.117 497.724 100.081 497.889V497.889Z" fill="#263238"/>
<path d="M213.436 388.147C213.862 363.584 216.247 339.095 220.566 314.912C221.221 311.224 222.086 307.255 224.938 304.843C227.393 302.759 230.783 302.302 233.986 302.045C256.956 300.171 280.37 310.439 301.225 321.562C303.512 322.776 305.358 324.683 306.498 327.011C307.638 329.339 308.014 331.969 307.572 334.523C304.065 354.545 297.051 369.648 286.73 388.768C263.287 398.287 237.54 400.57 212.793 395.325" fill="#FF725E"/>
<path d="M172.277 207.231C170.827 196.916 170.921 197.255 169.635 187.385C167.157 168.23 161.125 146.511 133.829 148.08C133.829 148.08 113.267 149.251 106.943 163.957C103.577 171.895 102.688 199.363 101.554 224.067C101.533 224.467 101.454 224.861 101.321 225.238L100.046 228.973C98.3611 233.884 97.3734 239.008 97.1123 244.194L95.3823 278.487C95.325 279.617 95.7173 280.724 96.4733 281.564C97.2293 282.405 98.2872 282.911 99.4152 282.972C108.615 283.417 129.633 282.246 133.677 280.782C141.974 277.737 149.521 272.941 155.805 266.719C162.09 260.497 166.966 252.995 170.102 244.721C170.523 243.55 176.473 243.046 177.595 242.613C179.442 241.899 172.557 209.198 172.277 207.231Z" fill="#263238"/>
<path d="M128.569 156.92L130.299 155.316L148.687 163.02C149.973 163.108 151.18 163.677 152.068 164.613C152.955 165.55 153.459 166.787 153.48 168.078L152.474 228.247C152.474 232.333 153.643 237.052 151.095 240.272L148.102 244.475C142.094 252.202 128.23 249.404 123.683 240.74C123.402 240.248 123.19 239.72 123.052 239.171C122.94 238.728 122.854 238.278 122.794 237.824C122.315 232.977 122.339 228.774 122.339 228.774C122.081 223.458 122.011 221.269 122 221.327C121.988 221.386 110.731 219.887 107.878 205.264C106.464 198.028 106.885 188.088 107.446 178.335C108.229 164.858 117.709 156.756 128.569 156.92Z" fill="#FFBF9D"/>
<path d="M131.456 188.134C131.469 188.625 131.673 189.091 132.025 189.433C132.377 189.775 132.848 189.964 133.338 189.961C133.577 189.972 133.816 189.935 134.04 189.852C134.264 189.769 134.469 189.642 134.644 189.478C134.818 189.315 134.958 189.118 135.055 188.899C135.152 188.68 135.204 188.444 135.209 188.205C135.197 187.713 134.993 187.245 134.641 186.902C134.29 186.559 133.818 186.366 133.327 186.366C133.087 186.357 132.849 186.396 132.624 186.48C132.4 186.564 132.195 186.692 132.021 186.857C131.847 187.022 131.707 187.219 131.61 187.439C131.513 187.658 131.461 187.895 131.456 188.134Z" fill="#263238"/>
<path d="M112.613 188.275C112.625 188.766 112.829 189.232 113.181 189.574C113.533 189.915 114.005 190.105 114.495 190.101C114.734 190.112 114.972 190.075 115.196 189.992C115.42 189.91 115.626 189.783 115.8 189.619C115.974 189.455 116.114 189.258 116.211 189.039C116.308 188.821 116.361 188.585 116.365 188.345C116.353 187.853 116.149 187.386 115.798 187.042C115.446 186.699 114.974 186.507 114.483 186.507C114.244 186.498 114.005 186.536 113.781 186.62C113.556 186.705 113.351 186.833 113.177 186.997C113.003 187.162 112.863 187.36 112.766 187.579C112.669 187.799 112.617 188.035 112.613 188.275V188.275Z" fill="#263238"/>
<path d="M109.328 182.21C109.562 182.456 110.953 181.344 112.963 181.285C114.974 181.226 116.47 182.175 116.704 181.917C116.938 181.66 116.564 181.367 115.898 180.922C115.004 180.347 113.954 180.064 112.893 180.114C111.844 180.143 110.832 180.508 110.006 181.156C109.398 181.66 109.199 182.105 109.328 182.21Z" fill="#263238"/>
<path d="M129.785 182.713C130.054 182.924 131.316 181.683 133.292 181.402C135.267 181.121 136.892 181.929 137.079 181.648C137.266 181.367 136.88 181.121 136.167 180.746C135.219 180.266 134.145 180.09 133.093 180.243C132.055 180.392 131.091 180.863 130.334 181.589C129.808 182.151 129.656 182.62 129.785 182.713Z" fill="#263238"/>
<path d="M122.537 197.314C121.462 197.023 120.355 196.866 119.241 196.845C118.715 196.845 118.224 196.728 118.072 196.377C118.004 195.844 118.107 195.303 118.364 194.832C118.797 193.567 119.252 192.232 119.743 190.851C121.661 185.172 123.017 180.512 122.794 180.442C122.572 180.372 120.831 184.903 118.913 190.582L117.593 194.586C117.292 195.221 117.225 195.943 117.406 196.623C117.486 196.8 117.605 196.957 117.755 197.081C117.905 197.204 118.082 197.292 118.271 197.337C118.561 197.411 118.86 197.442 119.159 197.431C120.285 197.539 121.421 197.5 122.537 197.314Z" fill="#263238"/>
<path d="M122 221.292C128.892 221.142 135.608 219.083 141.404 215.344C141.404 215.344 136.845 225.66 122.151 224.828L122 221.292Z" fill="#FF9A6C"/>
<path d="M123.566 202.161C123.931 201.66 124.418 201.261 124.981 201.002C125.544 200.744 126.163 200.635 126.781 200.686C127.229 200.713 127.667 200.831 128.069 201.032C128.471 201.233 128.828 201.514 129.118 201.857C129.398 202.187 129.571 202.594 129.615 203.024C129.658 203.455 129.571 203.889 129.364 204.268C129.05 204.641 128.632 204.913 128.164 205.048C127.696 205.183 127.198 205.177 126.734 205.029C125.781 204.713 124.899 204.212 124.139 203.554C123.905 203.404 123.702 203.209 123.543 202.981C123.469 202.869 123.43 202.739 123.43 202.606C123.43 202.473 123.469 202.342 123.543 202.231" fill="#FF9A6C"/>
<path d="M128.522 198.496C128.195 198.496 128.277 200.686 126.453 202.313C124.63 203.941 122.292 203.777 122.292 204.093C122.292 204.222 122.818 204.491 123.811 204.491C125.103 204.462 126.344 203.982 127.318 203.133C128.229 202.327 128.791 201.197 128.885 199.983C128.943 199.011 128.674 198.485 128.522 198.496Z" fill="#263238"/>
<path d="M127.95 172.89C128.218 173.405 130.182 172.89 132.567 172.832C134.952 172.773 136.939 173.159 137.243 172.633C137.348 172.375 136.951 171.907 136.074 171.462C134.977 170.951 133.776 170.707 132.567 170.748C131.343 170.776 130.143 171.088 129.06 171.661C128.207 172.153 127.833 172.644 127.95 172.89Z" fill="#263238"/>
<path d="M109.737 173.546C110.111 173.991 111.479 173.464 113.15 173.382C114.822 173.3 116.248 173.569 116.552 173.078C116.692 172.843 116.447 172.387 115.816 171.977C114.965 171.49 113.99 171.265 113.012 171.332C112.034 171.399 111.098 171.753 110.322 172.352C109.749 172.843 109.573 173.323 109.737 173.546Z" fill="#263238"/>
<path d="M152.696 193.754C152.696 193.754 142.328 196.822 136.834 171.204C134.963 162.446 126.979 155.269 126.979 155.269L130.264 154.321C130.264 154.321 150.557 160.362 150.896 160.62C151.235 160.877 155.888 171.239 155.888 171.239L152.696 193.754Z" fill="#263238"/>
<path d="M150.172 192.759C150.172 191.67 151.34 189.059 152.369 188.849C155.221 188.298 160.412 188.345 160.727 195.639C161.148 205.627 151.048 203.999 151.025 203.707C151.001 203.414 150.3 196.529 150.172 192.759Z" fill="#FFBF9D"/>
<path d="M153.9 199.796C153.9 199.796 154.087 199.913 154.38 200.03C154.796 200.2 155.261 200.2 155.677 200.03C156.718 199.597 157.536 197.887 157.501 196.084C157.493 195.227 157.293 194.383 156.916 193.614C156.809 193.306 156.628 193.029 156.39 192.807C156.151 192.585 155.863 192.424 155.549 192.338C155.347 192.294 155.137 192.321 154.954 192.415C154.77 192.509 154.625 192.664 154.543 192.853C154.426 193.146 154.543 193.333 154.438 193.356C154.333 193.38 154.228 193.192 154.286 192.783C154.334 192.534 154.462 192.308 154.649 192.139C154.916 191.925 155.254 191.82 155.595 191.846C156.007 191.911 156.395 192.079 156.725 192.335C157.054 192.591 157.313 192.926 157.477 193.309C157.943 194.156 158.192 195.106 158.202 196.073C158.202 198.086 157.279 200.018 155.864 200.487C155.601 200.579 155.319 200.61 155.042 200.577C154.765 200.545 154.498 200.45 154.263 200.299C153.936 200.042 153.877 199.819 153.9 199.796Z" fill="#FF9A6C"/>
<path d="M145.765 188.767C145.264 188.69 144.768 188.585 144.28 188.451C142.965 188.022 141.765 187.297 140.773 186.331C140.08 185.677 139.468 184.942 138.949 184.142C138.37 183.211 137.881 182.227 137.488 181.203C136.657 178.82 135.974 176.388 135.443 173.921C134.776 171.31 134.052 168.839 133.245 166.638C132.553 164.688 131.713 162.793 130.732 160.971C130.076 159.746 129.33 158.572 128.499 157.459C128.207 157.049 127.961 156.768 127.798 156.557C127.72 156.453 127.634 156.355 127.54 156.264C127.605 156.38 127.679 156.49 127.763 156.592C127.903 156.803 128.148 157.107 128.417 157.517C129.205 158.643 129.923 159.816 130.568 161.03C131.521 162.857 132.341 164.751 133.023 166.697C133.806 168.886 134.519 171.38 135.185 173.956C135.722 176.436 136.413 178.88 137.254 181.273C137.658 182.309 138.163 183.301 138.762 184.236C139.301 185.045 139.933 185.787 140.644 186.448C141.664 187.42 142.904 188.131 144.257 188.521C144.745 188.676 145.253 188.759 145.765 188.767V188.767Z" fill="#263238"/>
<path d="M175.748 242.508L153.538 234.113L121.976 227.229L96.5512 230.6C91.1857 230.718 81.8924 242.004 74.8202 254.111C68.4844 264.953 63.493 275.853 63.493 275.853L93.0794 286.929C94.7627 299.539 97.2409 316.2 99.3801 322.768C103.027 333.997 104.138 349.405 104.138 349.405L174.404 340.225L175.398 291.882L198.508 288.861C198.52 287.163 189.601 246.817 175.748 242.508Z" fill="#FF725E"/>
<path d="M173.972 261.885C173.972 262.279 174.016 262.671 174.1 263.056C174.217 263.829 174.381 264.953 174.556 266.334C175.005 269.954 175.231 273.598 175.234 277.246C175.219 280.891 174.985 284.531 174.533 288.147C174.357 289.54 174.194 290.664 174.077 291.437C173.992 291.822 173.945 292.214 173.936 292.608C174.091 292.231 174.201 291.839 174.264 291.437C174.451 290.664 174.661 289.552 174.883 288.158C176.021 280.901 176.021 273.51 174.883 266.252C174.661 264.871 174.451 263.747 174.275 262.986C174.215 262.609 174.113 262.24 173.972 261.885V261.885Z" fill="#263238"/>
<path d="M197.62 289.552L174.79 292.022L175.152 298.298L170.079 291.015L162.422 306.927C162.422 306.927 165.508 316.223 167.18 321.352C171.634 335.109 178.753 350.458 187.052 349.451C197.047 348.281 204.119 336.268 203.792 328.576C203.523 321.621 197.62 289.552 197.62 289.552Z" fill="#FFBF9D"/>
<path d="M208.316 380.748L247.897 396.296L232.852 414.526L199.163 408.672L208.316 380.748Z" fill="#FFBF9D"/>
<path d="M104.266 348.585C104.266 348.585 103.226 393.814 107.364 401.682C111.502 409.55 151.527 409.878 151.527 409.878L214.651 413.086L222.016 383.511C222.016 383.511 176.087 362.155 171.751 359.685C167.414 357.214 157.15 352.894 157.15 352.894L141.697 332.99L104.266 348.585Z" fill="#263238"/>
<path d="M177.186 410.37C177.024 410.297 176.856 410.238 176.684 410.194L175.234 409.773L169.833 408.286L151.679 403.45H151.609C150.593 403.44 149.579 403.374 148.57 403.251C146.612 403.043 144.688 402.591 142.842 401.905C141.116 401.293 139.455 400.508 137.886 399.563C133.397 396.877 129.752 392.982 127.365 388.323C127.026 387.667 126.816 387.152 126.64 386.778C126.57 386.587 126.475 386.406 126.36 386.239C126.402 386.436 126.465 386.629 126.547 386.813C126.687 387.176 126.874 387.738 127.19 388.417C128.097 390.337 129.231 392.141 130.568 393.791C132.579 396.229 134.981 398.314 137.675 399.961C139.268 400.933 140.956 401.737 142.714 402.361C143.64 402.703 144.584 402.992 145.542 403.228C146.53 403.453 147.529 403.625 148.535 403.743C149.567 403.865 150.605 403.932 151.644 403.942L169.845 408.625L175.281 409.96L176.754 410.3C176.894 410.341 177.04 410.364 177.186 410.37Z" fill="#455A64"/>
<path d="M175.304 362.342L186.059 296.495C186.059 296.495 184.632 249.1 211.203 252.495C237.773 255.89 234.582 297.595 234.582 297.595C234.582 297.595 231.145 354.767 229.263 363.021C227.381 371.276 226.435 380.455 221.011 383.757L196.895 379.998L175.304 362.342Z" fill="#263238"/>
<path d="M196.03 264.484L189.601 280.045L193.587 339.476C193.587 339.476 227.837 342.415 227.487 341.478C227.136 340.541 233.624 311.88 233.624 311.88C233.624 311.88 235.751 273.839 225.605 266.58C215.458 259.321 196.03 264.484 196.03 264.484Z" fill="#263238"/>
<path d="M194.966 339.581L195.41 367.962L219.339 381.111L225.838 341.654L194.966 339.581Z" fill="#FFBF9D"/>
<path d="M141.65 332.978L167.776 322.195L183.405 336.221L174.731 364.181L151.796 355.622L141.65 332.978Z" fill="#263238"/>
<path d="M220.508 383.488L220.192 383.3L219.234 382.82L215.54 381.017L201.921 374.437L181.687 364.789L169.728 359.146L163.404 356.149L160.166 354.615L158.53 353.842C157.987 353.561 157.425 353.323 156.846 353.128C154.564 352.29 152.167 351.804 149.739 351.688C147.392 351.543 145.036 351.689 142.725 352.121C138.35 352.952 134.171 354.6 130.404 356.98C127.002 359.13 123.948 361.788 121.345 364.86C119.091 367.531 117.099 370.413 115.395 373.465C112.96 377.881 110.952 382.519 109.398 387.316C108.837 389.014 108.451 390.349 108.229 391.262L107.949 392.292C107.91 392.406 107.886 392.524 107.878 392.643C107.878 392.643 107.878 392.538 108.007 392.304L108.334 391.285C108.615 390.384 109.036 389.072 109.62 387.386C111.231 382.613 113.273 377.996 115.722 373.594C117.442 370.582 119.438 367.736 121.684 365.094C124.27 362.065 127.301 359.448 130.673 357.331C134.392 354.995 138.516 353.378 142.83 352.566C145.107 352.137 147.428 351.996 149.739 352.144C152.135 352.258 154.5 352.736 156.753 353.561C157.324 353.751 157.879 353.986 158.413 354.264L160.049 355.036L163.287 356.57L169.611 359.556L181.57 365.211L201.851 374.753L215.54 381.158L219.269 382.867L220.251 383.3C220.331 383.369 220.417 383.432 220.508 383.488Z" fill="#455A64"/>
<path d="M170.733 360.387C170.715 358.945 170.812 357.504 171.026 356.078C171.77 352.68 173.036 349.418 174.778 346.407C176.548 343.379 178.05 340.202 179.267 336.912C179.6 335.896 179.85 334.854 180.015 333.798C180.091 333.412 180.119 333.019 180.097 332.627C180.003 332.627 179.84 334.278 178.928 336.795C177.614 340.022 176.075 343.151 174.322 346.161C172.56 349.214 171.326 352.543 170.675 356.008C170.513 357.069 170.47 358.145 170.546 359.216C170.561 359.613 170.624 360.006 170.733 360.387Z" fill="#455A64"/>
<path d="M233.694 311.88L233.6 312.184C233.6 312.418 233.472 312.722 233.367 313.097C233.168 313.94 232.899 315.111 232.537 316.61C231.835 319.666 230.818 324.091 229.626 329.571C229.03 332.31 228.387 335.308 227.767 338.551C227.615 339.371 227.452 340.178 227.346 341.045C227.34 341.17 227.34 341.295 227.346 341.42V341.537C227.346 341.595 227.346 341.537 227.346 341.431V341.361C227.346 341.361 227.346 341.361 227.288 341.361C227.087 341.393 226.884 341.413 226.68 341.42H225.383C223.641 341.42 221.876 341.291 219.994 341.185C212.606 340.74 204.505 340.097 195.995 339.394L193.657 339.195L193.879 339.429C192.71 322.909 191.728 308.074 190.98 297.279C190.594 291.94 190.279 287.62 190.056 284.599C189.94 283.136 189.846 281.988 189.776 281.169C189.776 280.794 189.718 280.501 189.694 280.279C189.707 280.178 189.707 280.075 189.694 279.974C189.681 280.075 189.681 280.178 189.694 280.279C189.694 280.501 189.694 280.806 189.694 281.169C189.694 281.988 189.811 283.147 189.881 284.611C190.068 287.632 190.325 291.952 190.653 297.303C191.354 308.051 192.324 322.897 193.4 339.453V339.675H193.622L195.96 339.874C204.47 340.588 212.582 341.209 219.982 341.63C221.829 341.724 223.629 341.818 225.394 341.841H226.703C226.931 341.834 227.157 341.811 227.381 341.771C227.467 341.751 227.55 341.719 227.627 341.677C227.671 341.645 227.704 341.6 227.72 341.548C227.732 341.506 227.732 341.462 227.72 341.42C227.72 341.361 227.568 341.42 227.72 341.42C227.716 341.33 227.716 341.24 227.72 341.15C227.814 340.331 227.978 339.499 228.118 338.692C228.726 335.448 229.345 332.451 229.918 329.7C231.087 324.243 232.022 319.818 232.677 316.715L233.413 313.203C233.483 312.816 233.554 312.512 233.589 312.278C233.654 312.155 233.689 312.018 233.694 311.88V311.88Z" fill="#455A64"/>
<path d="M202.155 260C201.876 260.186 201.62 260.406 201.395 260.656C200.916 261.101 200.226 261.827 199.502 262.658C195.542 267.268 192.701 272.734 191.202 278.628C190.921 279.799 190.734 280.677 190.641 281.321C190.565 281.651 190.534 281.989 190.547 282.328C190.629 282.328 190.91 280.934 191.541 278.722C193.213 272.946 196.014 267.562 199.782 262.88C201.22 261.089 202.225 260.059 202.155 260Z" fill="#455A64"/>
<path d="M163.042 352.835C163.027 352.513 162.972 352.195 162.878 351.887C162.738 351.29 162.504 350.423 162.177 349.369C161.307 346.618 160.212 343.944 158.904 341.373C157.589 338.807 156.068 336.351 154.356 334.032C153.702 333.153 153.187 332.451 152.731 331.994C152.544 331.733 152.32 331.5 152.065 331.304C152.065 331.304 152.825 332.474 154.064 334.242C155.676 336.604 157.14 339.063 158.448 341.607C159.74 344.159 160.868 346.791 161.826 349.487C162.574 351.547 162.96 352.859 163.042 352.835Z" fill="#455A64"/>
<path d="M120.071 349.405C119.989 349.405 119.65 350.4 118.902 351.969C117.946 354.012 116.77 355.943 115.395 357.729C114.022 359.508 112.454 361.126 110.719 362.553C109.386 363.642 108.486 364.239 108.533 364.309C108.58 364.38 108.79 364.216 109.223 363.982C109.818 363.625 110.391 363.234 110.941 362.811C112.794 361.454 114.454 359.851 115.874 358.045C117.263 356.227 118.404 354.231 119.264 352.109C119.524 351.471 119.746 350.818 119.93 350.154C120.018 349.914 120.065 349.66 120.071 349.405V349.405Z" fill="#455A64"/>
<path d="M247.324 414.959C262.076 414.21 265.793 414.679 280.546 413.929C284.146 413.742 297.25 414.198 300.254 412.208C303.002 410.405 306.52 408.696 307.268 405.499C308.437 400.09 306.976 393.967 302.008 390.583C300.268 389.417 298.252 388.73 296.163 388.592C287.454 387.902 279.494 394.271 270.785 392.374C268.447 391.871 266.32 390.559 263.982 390.033C260.494 389.345 256.875 389.927 253.777 391.672C250.655 393.287 249.931 393.557 249.931 393.557L234.43 388.3L229.602 415.416L247.324 414.959Z" fill="#FAFAFA"/>
<path d="M234.185 381.86L242.368 384.53C242.967 384.729 243.472 385.142 243.787 385.691C244.102 386.239 244.204 386.884 244.074 387.504L237.727 416.587C237.597 417.209 237.239 417.759 236.724 418.129C236.209 418.5 235.574 418.664 234.945 418.589L226.668 417.664C226.314 417.626 225.971 417.514 225.663 417.335C225.354 417.156 225.087 416.914 224.877 416.625C224.668 416.336 224.521 416.006 224.447 415.656C224.373 415.307 224.373 414.946 224.447 414.597L230.888 383.804C230.958 383.449 231.103 383.112 231.312 382.817C231.521 382.522 231.79 382.275 232.101 382.091C232.412 381.907 232.759 381.792 233.118 381.752C233.477 381.712 233.841 381.749 234.185 381.86V381.86Z" fill="#FAFAFA"/>
<path d="M237.528 417.758C238.144 416.344 238.649 414.884 239.036 413.391C239.866 410.663 240.906 406.869 241.841 402.607C242.777 398.345 243.396 394.411 243.735 391.625C243.899 390.208 244.016 389.049 244.062 388.253C244.13 387.842 244.13 387.423 244.062 387.012C243.7 388.508 243.427 390.025 243.244 391.555C242.777 394.353 242.075 398.228 241.163 402.455C240.252 406.682 239.258 410.51 238.557 413.262C238.112 414.735 237.769 416.237 237.528 417.758V417.758Z" fill="#263238"/>
<path d="M242.66 391.215C240.887 389.769 238.764 388.818 236.506 388.458C234.248 388.098 231.935 388.343 229.801 389.166C229.801 389.389 232.794 388.534 236.406 389.166C240.018 389.798 242.555 391.402 242.66 391.215Z" fill="#263238"/>
<path d="M241.689 402.197C239.505 401.196 237.203 400.472 234.839 400.043C232.526 399.38 230.138 399.014 227.732 398.954C230.005 399.698 232.324 400.288 234.676 400.722C238.522 401.612 241.631 402.396 241.689 402.197Z" fill="#263238"/>
<path d="M237.972 413.59C237.972 413.367 234.804 413.753 231.309 412.255C227.814 410.756 225.827 408.309 225.675 408.461C225.523 408.614 226.002 409.211 226.844 410.136C228.037 411.318 229.445 412.26 230.993 412.91C232.546 413.558 234.21 413.892 235.891 413.894C236.599 413.964 237.314 413.86 237.972 413.59V413.59Z" fill="#263238"/>
<path d="M194.347 358.888L194.954 371.159L219.409 382.914L223.477 362.424L194.347 358.888Z" fill="#FAFAFA"/>
<path d="M227.533 355.224L225.698 363.771C225.563 364.402 225.199 364.961 224.677 365.34C224.154 365.718 223.51 365.889 222.869 365.82L192.757 362.506C192.113 362.439 191.517 362.135 191.085 361.652C190.653 361.17 190.415 360.544 190.419 359.895V351.383C190.424 351.02 190.504 350.662 190.654 350.331C190.804 350 191.021 349.705 191.292 349.463C191.562 349.22 191.88 349.037 192.224 348.924C192.569 348.812 192.934 348.772 193.295 348.808L225.184 352.074C225.554 352.103 225.915 352.21 226.241 352.39C226.566 352.569 226.85 352.816 227.073 353.115C227.295 353.413 227.451 353.755 227.531 354.119C227.61 354.483 227.611 354.86 227.533 355.224V355.224Z" fill="#FAFAFA"/>
<path d="M191.588 362.436C193.077 362.928 194.606 363.288 196.158 363.513C199.011 364.052 202.962 364.684 207.369 365.223C211.776 365.761 215.774 365.925 218.684 365.972C220.134 365.972 221.303 365.972 222.121 365.972C222.542 365.99 222.963 365.947 223.372 365.843C221.822 365.626 220.26 365.509 218.696 365.492C215.809 365.316 211.822 365.024 207.439 364.532C203.055 364.04 199.104 363.455 196.24 363.033C194.704 362.732 193.15 362.532 191.588 362.436V362.436Z" fill="#263238"/>
<path d="M218.977 364.813C220.361 362.912 221.11 360.621 221.116 358.268C221.35 354.334 219.818 351.419 219.678 351.524C219.538 351.629 220.636 354.486 220.403 358.221C220.169 361.956 218.825 364.719 218.977 364.813Z" fill="#263238"/>
<path d="M207.755 365C208.54 362.674 209.031 360.259 209.216 357.811C209.73 353.784 209.765 350.494 209.566 350.482C209.368 350.47 209.017 353.725 208.514 357.718C208.012 361.71 207.556 364.953 207.755 365Z" fill="#263238"/>
<path d="M195.843 362.436C196.065 362.436 195.352 359.228 196.486 355.528C197.62 351.828 199.899 349.545 199.724 349.405C199.548 349.264 199.011 349.814 198.169 350.821C196.01 353.516 194.986 356.948 195.317 360.387C195.33 361.102 195.51 361.804 195.843 362.436Z" fill="#263238"/>
<path d="M139.908 268.805C139.908 268.805 152.404 270.573 153.199 271.345C153.994 272.118 170.079 291.015 170.079 291.015L162.422 306.927L148.243 299.609C146.798 299.003 145.293 298.552 143.754 298.263C143.754 298.263 129.563 296.331 128.557 294.645C127.552 292.959 128.113 292.549 129.154 292.303C130.194 292.057 138.681 292.807 140.574 293.111C142.452 293.256 144.339 293.216 146.209 292.994C146.209 292.994 140.305 291.741 138.961 291.308C137.617 290.875 124.408 288.205 124.571 285.829C124.735 283.452 126.348 282.574 134.636 284.658C139.227 285.851 143.944 286.484 148.687 286.543L130.346 280.56C130.346 280.56 122.958 278.359 125.273 276.204C127.587 274.05 143.391 278.054 143.391 278.054L150.405 280.536L148.348 276.38C148.348 276.38 138.412 273.652 137.126 272.692C135.536 271.521 135.291 270.35 136.448 269.332C137.605 268.313 139.908 268.805 139.908 268.805Z" fill="#FFBF9D"/>
<path d="M97.2526 248.889C97.244 249.361 97.1892 249.832 97.0889 250.294C96.9253 251.312 96.7148 252.577 96.4577 254.076C95.9316 257.272 95.2887 261.698 94.599 266.592C93.9093 271.486 93.5119 275.958 93.208 279.178C93.0677 280.689 92.9391 281.965 92.8456 282.995C92.8232 283.469 92.7567 283.939 92.6469 284.4C92.5872 283.93 92.5872 283.454 92.6469 282.983C92.6469 282.07 92.717 280.759 92.8105 279.143C93.0092 275.9 93.395 271.427 93.9795 266.521C94.564 261.616 95.3822 257.155 96.0252 254.005C96.3525 252.413 96.633 251.125 96.8434 250.247C96.9215 249.779 97.059 249.322 97.2526 248.889Z" fill="#263238"/>
<path d="M179.863 250.118C179.863 249.79 176.754 230.565 175.304 223.763L152.439 227.275C152.124 230.12 152.018 240.037 152.089 243.374C152.049 246.741 153.159 250.021 155.233 252.671C156.29 253.971 157.688 254.949 159.27 255.495C160.852 256.041 162.555 256.134 164.187 255.762C165.948 258.34 168.63 260.143 171.68 260.796C174.72 261.265 178.191 259.684 179.162 256.757C179.85 254.616 180.089 252.356 179.863 250.118V250.118Z" fill="#263238"/>
<path d="M146.559 252.753L142.912 287.796C142.853 288.363 142.576 288.885 142.14 289.252C141.704 289.619 141.143 289.802 140.574 289.763L118.925 288.03C118.349 287.985 117.814 287.713 117.437 287.274C117.061 286.836 116.873 286.265 116.915 285.688L119.463 248.842C119.483 248.536 119.567 248.237 119.71 247.966C119.852 247.694 120.05 247.455 120.29 247.264C120.529 247.074 120.807 246.935 121.103 246.858C121.4 246.781 121.709 246.767 122.011 246.816L144.712 250.329C145.274 250.413 145.782 250.713 146.126 251.166C146.471 251.618 146.626 252.187 146.559 252.753V252.753Z" fill="#263238"/>
<path d="M128.277 264.379C128.277 264.379 115.675 264.063 114.752 264.695C113.828 265.327 94.9147 281.356 94.9147 281.356L99.8477 298.333C99.8477 298.333 113.466 293.954 115.044 293.439C116.578 293.079 118.145 292.879 119.72 292.842C119.72 292.842 134.04 293.275 135.256 291.765C136.471 290.254 136.027 289.774 135.045 289.318C134.063 288.861 125.565 288.252 123.648 288.252C121.771 288.085 119.916 287.736 118.107 287.21C118.107 287.21 124.139 286.941 125.53 286.73C126.921 286.519 140.399 286.051 140.633 283.698C140.867 281.344 139.464 280.185 130.895 280.864C126.221 281.298 121.512 281.173 116.868 280.49L135.828 277.574C135.828 277.574 143.473 276.614 141.545 274.062C139.616 271.509 123.356 272.891 123.356 272.891L116.05 274.191L118.75 270.42C118.75 270.42 129.002 269.367 130.439 268.629C132.205 267.716 132.637 266.639 131.608 265.433C130.58 264.227 128.277 264.379 128.277 264.379Z" fill="#FFBF9D"/>
<path d="M68.3325 277.668L89.4673 285.571L89.0699 288.51L95.429 280.923L101.274 296.144C101.274 296.144 91.4429 315.497 89.3153 320.462C83.2251 334.84 72.4005 342.345 64.6386 339.16C55.2869 335.343 49.933 325.461 54.1997 314.502C56.7364 307.981 68.3325 277.668 68.3325 277.668Z" fill="#FFBF9D"/>
<path d="M94.9147 281.356C94.9147 281.356 95.09 281.18 95.429 280.876L96.9837 279.529L102.969 274.413L112.449 266.393L113.875 265.222L114.623 264.613C114.937 264.469 115.273 264.382 115.617 264.356C116.915 264.215 118.247 264.192 119.615 264.168C122.362 264.168 125.249 264.168 128.289 264.168C129.062 264.144 129.833 264.255 130.568 264.496C130.961 264.622 131.323 264.83 131.632 265.105C131.943 265.393 132.176 265.756 132.31 266.159C132.386 266.37 132.415 266.596 132.397 266.82C132.379 267.044 132.313 267.262 132.205 267.458C131.981 267.826 131.682 268.141 131.328 268.383C130.971 268.643 130.577 268.849 130.159 268.992C129.75 269.109 129.352 269.203 128.99 269.285C125.752 269.905 122.339 270.292 118.808 270.678L118.972 270.596L116.272 274.354L116.05 273.991L123.356 272.692C126.418 272.458 129.574 272.305 132.789 272.317C134.402 272.317 136.039 272.387 137.675 272.575C138.509 272.658 139.334 272.81 140.142 273.031C140.557 273.148 140.952 273.33 141.311 273.57C141.514 273.699 141.686 273.871 141.817 274.073C141.948 274.275 142.035 274.503 142.071 274.741C142.07 274.99 142.01 275.235 141.894 275.456C141.777 275.676 141.61 275.865 141.404 276.005C141.046 276.272 140.652 276.489 140.235 276.649C139.436 276.973 138.611 277.228 137.769 277.41C136.086 277.773 134.391 277.949 132.696 278.23L122.362 279.799L116.751 280.642V280.15C121.06 280.754 125.421 280.899 129.761 280.583C131.883 280.387 134.014 280.312 136.144 280.361C137.219 280.364 138.284 280.563 139.288 280.946C139.838 281.164 140.285 281.582 140.539 282.117C140.76 282.642 140.821 283.22 140.715 283.78C140.632 284.084 140.441 284.346 140.177 284.517C139.952 284.672 139.713 284.805 139.464 284.915C138.982 285.118 138.486 285.282 137.979 285.407C137 285.654 136.009 285.849 135.01 285.992C133.035 286.285 131.082 286.473 129.165 286.625L126.301 286.835C125.378 286.906 124.419 287.046 123.484 287.093C121.625 287.21 119.802 287.304 118.002 287.386V286.941C119.965 287.559 122.001 287.918 124.057 288.006C126.091 288.088 128.066 288.24 129.995 288.404C130.954 288.498 131.912 288.592 132.847 288.709C133.315 288.767 133.783 288.826 134.239 288.908C134.485 288.951 134.727 289.014 134.963 289.095C135.187 289.195 135.399 289.321 135.595 289.47C135.707 289.553 135.801 289.658 135.871 289.779C135.942 289.9 135.987 290.034 136.004 290.172C136.023 290.433 135.967 290.693 135.84 290.922C135.733 291.135 135.608 291.339 135.466 291.531L135.256 291.8C135.171 291.904 135.068 291.991 134.952 292.057C134.122 292.404 133.242 292.614 132.345 292.678C129.131 292.967 125.904 293.076 122.678 293.006H120.492C119.795 292.959 119.096 292.959 118.399 293.006C117.107 293.051 115.826 293.264 114.588 293.638L103.623 297.15L100.724 298.04L99.988 298.263L99.7308 298.333L99.9763 298.239L100.713 297.982L103.588 297.022L114.506 293.439C117.177 292.756 119.942 292.519 122.689 292.736C125.901 292.791 129.112 292.666 132.31 292.362C133.158 292.302 133.991 292.104 134.776 291.776C134.852 291.735 134.92 291.679 134.975 291.612L135.174 291.355C135.302 291.184 135.412 290.999 135.501 290.805C135.7 290.418 135.7 290.055 135.361 289.821C135.192 289.689 135.008 289.579 134.811 289.493C134.624 289.435 134.402 289.388 134.18 289.341C133.736 289.259 133.268 289.201 132.812 289.142C131.877 289.041 130.93 288.947 129.972 288.861C128.055 288.697 126.079 288.557 124.057 288.475C121.966 288.393 119.895 288.039 117.896 287.421C117.841 287.404 117.793 287.368 117.763 287.318C117.732 287.268 117.722 287.209 117.733 287.152C117.747 287.106 117.775 287.066 117.812 287.037C117.85 287.007 117.896 286.99 117.943 286.988V286.988C119.743 286.906 121.567 286.812 123.426 286.683C124.361 286.683 125.261 286.496 126.231 286.414L129.095 286.203C131.012 286.039 132.964 285.864 134.94 285.559C135.924 285.421 136.899 285.23 137.862 284.986C138.342 284.867 138.811 284.71 139.265 284.517C139.686 284.33 140.177 284.049 140.235 283.721C140.322 283.268 140.273 282.8 140.095 282.375C139.88 281.964 139.523 281.648 139.09 281.485C138.14 281.131 137.134 280.949 136.121 280.946C134.01 280.902 131.898 280.981 129.796 281.18C125.442 281.515 121.064 281.378 116.739 280.771C116.706 280.768 116.674 280.758 116.645 280.742C116.616 280.726 116.591 280.704 116.571 280.678C116.551 280.651 116.537 280.621 116.53 280.588C116.522 280.556 116.522 280.522 116.529 280.49C116.536 280.436 116.56 280.387 116.598 280.349C116.636 280.311 116.686 280.286 116.739 280.279V280.279L122.35 279.424L132.684 277.855C134.379 277.574 136.086 277.399 137.722 277.047C138.521 276.873 139.303 276.63 140.06 276.321C140.429 276.169 140.778 275.972 141.1 275.736C141.242 275.648 141.36 275.525 141.444 275.38C141.527 275.235 141.574 275.072 141.58 274.905C141.509 274.214 140.738 273.804 139.978 273.605C139.213 273.389 138.431 273.24 137.64 273.16C136.032 272.993 134.417 272.907 132.801 272.903C129.598 272.903 126.453 273.031 123.449 273.254L116.131 274.542C116.102 274.547 116.072 274.546 116.043 274.539C116.014 274.532 115.987 274.52 115.963 274.502C115.939 274.485 115.919 274.463 115.904 274.437C115.888 274.412 115.878 274.384 115.874 274.354C115.851 274.298 115.851 274.235 115.874 274.179C116.821 272.879 117.744 271.58 118.586 270.42C118.627 270.37 118.685 270.336 118.75 270.327C122.257 269.952 125.682 269.566 128.885 268.969C129.279 268.896 129.669 268.802 130.054 268.688C130.414 268.56 130.753 268.378 131.059 268.149C131.69 267.716 132.169 267.048 131.912 266.381C131.787 266.046 131.588 265.744 131.328 265.499C131.069 265.253 130.757 265.07 130.416 264.964C129.728 264.731 129.003 264.627 128.277 264.66V264.66C125.249 264.578 122.35 264.543 119.627 264.578C118.259 264.578 116.926 264.578 115.652 264.742C115.362 264.758 115.077 264.826 114.81 264.941L114.074 265.526L112.648 266.697L103.097 274.589L97.0305 279.6L95.4407 280.899C95.09 281.215 94.9147 281.356 94.9147 281.356Z" fill="#FF9A6C"/>
<path d="M94.9147 281.356C95.0433 281.461 89.0699 289.001 81.6353 298.181C74.2007 307.36 68.0286 314.725 67.8532 314.631C67.6779 314.537 73.698 306.997 81.1326 297.806C88.5672 288.615 94.7627 281.251 94.9147 281.356Z" fill="#FF9A6C"/>
</g>
<defs>
<clipPath id="clip0_202_544">
<rect width="468" height="475" fill="white" transform="translate(46 43)"/>
</clipPath>
</defs>
</svg>
